<?xml version="1.0" encoding="utf-8"?>
<svg xmlns="http://www.w3.org/2000/svg" viewBox="0 0 500 500">
  <path d="M 175.034 156.727 C 154.522 121.333 162.546 73.285 192.958 49.41 C 223.367 25.535 264.651 34.874 285.163 70.271 L 423.708 309.332 C 444.22 344.732 436.198 392.78 405.783 416.655 C 375.371 440.532 334.094 431.191 313.579 395.794 L 253.513 292.145 C 245.791 280.823 230.072 282.584 220.633 293.569 C 212.808 302.678 210.245 325.982 208.027 346.159 C 207.703 349.123 207.386 352.011 207.057 354.782 C 205.853 367.988 201.934 381.052 195.111 392.832 C 172.809 431.313 127.916 441.458 94.849 415.502 C 61.788 389.543 53.051 337.299 75.353 298.811 C 86.917 278.851 104.563 266.513 123.48 262.884 L 123.455 262.852 C 178.116 253.627 188.248 181.826 178.247 162.266 L 175.034 156.727 Z" fill="#8142E3" style=""/>
</svg>