<svg viewBox="0 0 341 75" fill="#fff" xmlns="http://www.w3.org/2000/svg"><path d="M176.753 32.758h-11.199q-.306-2.173-1.253-3.86a9.8 9.8 0 0 0-2.429-2.915q-1.482-1.202-3.426-1.841-1.917-.64-4.167-.64-4.066 0-7.083 2.02-3.017 1.995-4.679 5.83-1.662 3.81-1.662 9.256 0 5.6 1.662 9.409 1.687 3.81 4.705 5.753t6.98 1.943q2.224 0 4.116-.588 1.918-.588 3.401-1.713a9.9 9.9 0 0 0 2.454-2.787q.997-1.636 1.381-3.733l11.199.051q-.435 3.605-2.173 6.955-1.713 3.323-4.628 5.957-2.889 2.609-6.904 4.142-3.988 1.508-9.025 1.508-7.006 0-12.529-3.17-5.496-3.17-8.693-9.179-3.17-6.009-3.17-14.548 0-8.565 3.221-14.574t8.745-9.153q5.523-3.17 12.426-3.17 4.55 0 8.437 1.277 3.912 1.28 6.929 3.733 3.018 2.43 4.909 5.958 1.918 3.528 2.455 8.08m25.279 34.798q-5.958 0-10.304-2.532-4.321-2.556-6.674-7.108-2.352-4.576-2.352-10.61 0-6.086 2.352-10.637 2.353-4.575 6.674-7.108 4.346-2.556 10.304-2.556 5.956 0 10.278 2.556 4.347 2.532 6.699 7.108 2.352 4.551 2.352 10.637 0 6.034-2.352 10.61-2.352 4.552-6.699 7.108-4.322 2.532-10.278 2.532m.051-8.438q2.71 0 4.525-1.534 1.817-1.56 2.736-4.244.946-2.685.946-6.111t-.946-6.11q-.92-2.685-2.736-4.245-1.815-1.56-4.525-1.56-2.736 0-4.602 1.56-1.842 1.56-2.787 4.244-.921 2.685-.921 6.111t.921 6.11q.945 2.685 2.787 4.245 1.866 1.534 4.602 1.534m40.632 8.31q-4.474 0-8.105-2.301-3.605-2.327-5.727-6.827-2.097-4.526-2.097-11.097 0-6.75 2.174-11.224 2.173-4.5 5.778-6.724 3.63-2.25 7.952-2.25 3.298 0 5.497 1.125 2.224 1.099 3.579 2.76 1.381 1.638 2.097 3.223h.332V14.426h10.867V66.79h-10.739V60.5h-.46q-.767 1.636-2.173 3.247-1.381 1.586-3.605 2.633-2.199 1.05-5.37 1.049m3.452-8.668q2.634 0 4.449-1.432 1.841-1.456 2.812-4.065.997-2.609.997-6.11 0-3.503-.971-6.086-.972-2.583-2.813-3.989-1.84-1.406-4.474-1.406-2.684 0-4.526 1.457-1.84 1.458-2.787 4.04-.946 2.583-.946 5.983 0 3.426.946 6.06.972 2.608 2.787 4.09 1.841 1.458 4.526 1.458m45.548 8.796q-6.06 0-10.432-2.455-4.347-2.48-6.699-7.006-2.352-4.551-2.352-10.764 0-6.06 2.352-10.636 2.352-4.577 6.622-7.134 4.296-2.556 10.074-2.556 3.887 0 7.236 1.252 3.375 1.228 5.881 3.708 2.531 2.48 3.937 6.238 1.406 3.733 1.406 8.745v2.991h-33.162v-6.75h22.91q0-2.352-1.023-4.167a7.33 7.33 0 0 0-2.838-2.839q-1.79-1.047-4.168-1.048-2.48 0-4.398 1.15a8.07 8.07 0 0 0-2.966 3.043q-1.073 1.893-1.099 4.22v6.417q0 2.914 1.074 5.037 1.1 2.121 3.094 3.272t4.73 1.151q1.815 0 3.324-.511 1.508-.512 2.582-1.535t1.636-2.505l10.074.665q-.766 3.63-3.145 6.34-2.352 2.685-6.085 4.194-3.707 1.483-8.565 1.483m24.933-.767V27.517h10.56v6.852h.409q1.074-3.655 3.605-5.523 2.532-1.891 5.83-1.892.817 0 1.764.103.946.102 1.662.28v9.666q-.767-.23-2.122-.41-1.356-.178-2.48-.178-2.404 0-4.296 1.048a7.7 7.7 0 0 0-2.966 2.864q-1.074 1.84-1.074 4.244V66.79zM102.464 32.547c-2.093 0-3.487-1.227-3.487-3.745V14.336C98.977 5.102 95.172 0 85.344 0H80.78v9.751h1.395c3.868 0 5.706 2.131 5.706 5.941V28.48c0 5.553 1.649 7.814 5.263 8.976-3.614 1.098-5.263 3.423-5.263 8.976v9.493c0 2.648 0 5.231-.697 7.879-.697 2.454-1.839 4.779-3.424 6.78-.888 1.163-1.902 2.132-3.043 3.036v1.291h4.565c9.828 0 13.632-5.102 13.632-14.336V46.108c0-2.583 1.332-3.745 3.488-3.745H105v-9.751h-2.536zM71.395 14.726H57.319a.574.574 0 0 1-.571-.582v-1.097c0-.323.254-.582.57-.582h14.14c.317 0 .57.259.57.582v1.098c0 .322-.316.58-.633.58m2.409 13.949H63.533a.574.574 0 0 1-.571-.581v-1.098c0-.323.254-.582.57-.582h10.272c.317 0 .571.259.571.582v1.098c0 .258-.254.58-.57.58m4.057-6.973H57.319a.574.574 0 0 1-.571-.581V20.02c0-.323.254-.581.57-.581h20.48c.318 0 .571.258.571.58v1.099c0 .258-.19.58-.507.58m-36.838-3.81c1.394 0 2.79.13 4.12.452v-2.648c0-3.745 1.903-5.94 5.707-5.94h1.395V0h-4.565c-9.828 0-13.632 5.102-13.632 14.336v4.779c2.219-.775 4.565-1.227 6.974-1.227"/><path d="M82.174 53.017c-1.015-8.202-7.228-15.047-15.218-16.597-2.219-.452-4.438-.516-6.594-.129-.063 0-.063-.065-.127-.065C56.749 28.8 49.267 23.892 41.15 23.892s-15.534 4.779-19.085 12.205c-.063 0-.063.065-.127.065a18.9 18.9 0 0 0-6.847.452C7.228 38.551 1.268 45.267.19 53.404A17 17 0 0 0 0 55.858c0 2.454 1.649 4.714 4.058 5.037a4.78 4.78 0 0 0 5.516-4.843c0-.452 0-.969.064-1.42.507-4.134 3.614-7.621 7.672-8.59a9.2 9.2 0 0 1 3.74-.193c3.869.516 7.673-1.486 9.321-4.973 1.205-2.583 3.107-4.843 5.643-6.07 2.79-1.356 5.96-1.55 8.877-.517 3.044 1.098 5.326 3.423 6.721 6.329 1.459 2.841 2.156 4.843 5.263 5.23 1.268.194 4.819.13 6.15.065 2.6 0 5.2.904 7.038 2.777a9.9 9.9 0 0 1 2.473 4.714c.57 2.906-.127 5.812-1.839 8.008-1.204 1.55-2.853 2.712-4.692 3.229-.887.258-1.775.322-2.663.322H49.33c-2.79 0-5.01-2.26-5.01-5.101V40.94c0-.774-.633-1.42-1.394-1.42H40.96c-3.868.064-6.974 4.456-6.974 9.105V65.61c0 5.037 3.994 9.106 8.94 9.106l22.319-.065c5.072-.517 9.764-3.164 12.934-7.233 3.17-3.939 4.629-9.105 3.995-14.4"/></svg>