<svg xmlns="http://www.w3.org/2000/svg" width="163" height="32" fill="none" viewBox="0 0 163 32">
  <g clip-path="url(#a)">
    <rect width="32" height="32" fill="#FF6928" rx="16" />
    <path fill="#fff" fill-rule="evenodd" d="M7.556 29.778C-3 29.778-11.556 23.609-11.556 16c0-7.61 8.557-13.778 19.112-13.778 11.17 0 19.11 5.905 19.11 13.778s-7.94 13.778-19.11 13.778Zm0-8c-10.17 0-17.334-2.587-17.334-5.778 0-3.191 7.163-5.778 17.334-5.778 10.17 0 17.333 2.128 17.333 5.778 0 3.65-7.163 5.778-17.333 5.778Z" clip-rule="evenodd" />
    <g filter="url(#b)" opacity=".3">
      <path fill="#FF6928" d="M1.893 11.25C4.192 6.285 5.753 3.667 10.495.177L7.9-5.684-5.308-2.17l-.438 15.1 7.639-1.678Z" />
    </g>
    <g filter="url(#c)" opacity=".3">
      <path fill="#FF6928" d="M12.434 29.6c-4.607-2.955-6.988-4.86-9.798-10.033l-6.16 1.773 1.679 13.563 14.898 2.493-.62-7.796Z" />
    </g>
  </g>
  <path fill="currentColor" d="M46.18 22.416c4.02 0 6.03-2.171 6.03-6.514v-.227c0-2.143-.493-3.745-1.48-4.807-.966-1.081-2.502-1.622-4.607-1.622h-1.82v13.17h1.877ZM39.694 5.662h6.656c3.47 0 6.144.892 8.022 2.674 1.763 1.764 2.645 4.19 2.645 7.282v.227c0 3.13-.891 5.585-2.674 7.367C52.485 25.071 49.811 26 46.322 26h-6.628V5.662Zm23.788 20.65c-1.441 0-2.608-.35-3.499-1.052-.986-.777-1.479-1.905-1.479-3.384 0-1.65.72-2.883 2.162-3.698 1.29-.72 3.148-1.081 5.575-1.081h1.678V16.5c0-.949-.18-1.64-.54-2.077-.342-.436-.968-.654-1.878-.654-1.46 0-2.304.701-2.531 2.105h-3.897c.114-1.669.806-2.958 2.076-3.869 1.157-.815 2.693-1.223 4.608-1.223 1.916 0 3.414.417 4.494 1.252 1.157.91 1.736 2.332 1.736 4.266V26h-4.011v-1.792c-1.005 1.403-2.503 2.105-4.494 2.105Zm1.223-2.872c.93 0 1.697-.237 2.304-.711.607-.474.91-1.119.91-1.934v-1.252h-1.593c-1.251 0-2.2.161-2.844.484-.626.322-.939.863-.939 1.621 0 1.195.72 1.792 2.162 1.792Zm15.734 2.844c-3.204 0-4.807-1.564-4.807-4.693v-7.538h-1.905v-2.93h1.905V7.91h4.096v3.215h3.13v2.93h-3.13v7.167c0 1.176.55 1.764 1.65 1.764.607 0 1.129-.095 1.565-.285v3.186c-.759.266-1.593.398-2.504.398Zm8.92.029c-1.442 0-2.608-.35-3.5-1.053-.985-.777-1.478-1.905-1.478-3.384 0-1.65.72-2.883 2.161-3.698 1.29-.72 3.148-1.081 5.576-1.081h1.678V16.5c0-.949-.18-1.64-.54-2.077-.342-.436-.968-.654-1.878-.654-1.46 0-2.304.701-2.532 2.105H84.95c.114-1.669.806-2.958 2.077-3.869 1.157-.815 2.693-1.223 4.608-1.223 1.915 0 3.413.417 4.494 1.252 1.157.91 1.735 2.332 1.735 4.266V26h-4.01v-1.792c-1.005 1.403-2.503 2.105-4.495 2.105Zm1.223-2.873c.929 0 1.697-.237 2.303-.711.607-.474.91-1.119.91-1.934v-1.252h-1.592c-1.252 0-2.2.161-2.845.484-.625.322-.938.863-.938 1.621 0 1.195.72 1.792 2.162 1.792Zm10.671-17.778h4.608v16.726h8.277V26h-12.885V5.662Zm21.632 20.65c-2.313 0-4.162-.672-5.547-2.019-1.479-1.365-2.218-3.214-2.218-5.546v-.228c0-2.313.739-4.19 2.218-5.632 1.442-1.403 3.252-2.105 5.433-2.105 2.067 0 3.755.598 5.063 1.792 1.46 1.328 2.191 3.252 2.191 5.775v1.137h-10.724c.057 1.252.398 2.219 1.024 2.902.645.663 1.536.995 2.674.995 1.782 0 2.816-.692 3.1-2.076h3.897c-.246 1.612-.986 2.854-2.219 3.726-1.213.853-2.844 1.28-4.892 1.28Zm3.129-9.357c-.133-2.219-1.214-3.328-3.243-3.328-.929 0-1.697.294-2.304.881-.588.57-.957 1.385-1.109 2.447h6.656Zm6.19-5.831h4.125v2.36c.929-1.801 2.541-2.702 4.835-2.702 1.498 0 2.703.455 3.613 1.366.929.986 1.394 2.446 1.394 4.38V26h-4.125v-8.875c0-1.024-.209-1.773-.626-2.247-.417-.493-1.081-.74-1.991-.74-.929 0-1.678.285-2.247.854-.569.55-.853 1.356-.853 2.418V26h-4.125V11.124Zm22.385 15.189c-2.01 0-3.575-.427-4.694-1.28-1.118-.853-1.716-2.086-1.792-3.698h3.84c.114.72.361 1.252.74 1.593.379.341 1.005.512 1.877.512 1.555 0 2.333-.54 2.333-1.621 0-.512-.228-.892-.683-1.138-.455-.266-1.233-.474-2.332-.626-2.01-.322-3.414-.806-4.21-1.45-.853-.664-1.28-1.726-1.28-3.186s.607-2.627 1.82-3.499c1.043-.758 2.399-1.138 4.068-1.138 1.725 0 3.119.342 4.181 1.024 1.119.759 1.773 1.953 1.963 3.584h-3.783c-.114-.626-.351-1.08-.711-1.365-.361-.284-.901-.427-1.622-.427-.663 0-1.185.143-1.564.427a1.35 1.35 0 0 0-.541 1.11c0 .473.2.824.598 1.052.417.227 1.175.417 2.275.569 1.953.265 3.385.71 4.295 1.337.986.739 1.48 1.848 1.48 3.328 0 1.592-.55 2.806-1.65 3.64-1.081.835-2.617 1.252-4.608 1.252Z" />
  <defs>
    <filter id="b" width="37.575" height="39.945" x="-16.413" y="-16.35" color-interpolation-filters="sRGB" filterUnits="userSpaceOnUse">
      <feFlood flood-opacity="0" result="BackgroundImageFix" />
      <feBlend in="SourceGraphic" in2="BackgroundImageFix" result="shape" />
      <feGaussianBlur result="effect1_foregroundBlur_219_14417" stdDeviation="5.333" />
    </filter>
    <filter id="c" width="37.91" height="39.162" x="-14.19" y="8.901" color-interpolation-filters="sRGB" filterUnits="userSpaceOnUse">
      <feFlood flood-opacity="0" result="BackgroundImageFix" />
      <feBlend in="SourceGraphic" in2="BackgroundImageFix" result="shape" />
      <feGaussianBlur result="effect1_foregroundBlur_219_14417" stdDeviation="5.333" />
    </filter>
    <clipPath id="a">
      <rect width="32" height="32" fill="#fff" rx="16" />
    </clipPath>
  </defs>
</svg>
