<svg width="128" height="128" viewBox="0 0 128 128" fill="none" xmlns="http://www.w3.org/2000/svg">
<rect width="128" height="128" fill="white"/>
<path d="M41.0227 89.0227C37.1136 89.0076 33.75 88.0455 30.9318 86.1364C28.1288 84.2273 25.9697 81.4621 24.4545 77.8409C22.9545 74.2197 22.2121 69.8636 22.2273 64.7727C22.2273 59.697 22.9773 55.3712 24.4773 51.7955C25.9924 48.2197 28.1515 45.5 30.9545 43.6364C33.7727 41.7576 37.1288 40.8182 41.0227 40.8182C44.9167 40.8182 48.2652 41.7576 51.0682 43.6364C53.8864 45.5152 56.053 48.2424 57.5682 51.8182C59.0833 55.3788 59.8333 59.697 59.8182 64.7727C59.8182 69.8788 59.0606 74.2424 57.5455 77.8636C56.0455 81.4848 53.8939 84.25 51.0909 86.1591C48.2879 88.0682 44.9318 89.0227 41.0227 89.0227ZM41.0227 80.8636C43.6894 80.8636 45.8182 79.5227 47.4091 76.8409C49 74.1591 49.7879 70.1364 49.7727 64.7727C49.7727 61.2424 49.4091 58.303 48.6818 55.9545C47.9697 53.6061 46.9545 51.8409 45.6364 50.6591C44.3333 49.4773 42.7955 48.8864 41.0227 48.8864C38.3712 48.8864 36.25 50.2121 34.6591 52.8636C33.0682 55.5152 32.2652 59.4848 32.25 64.7727C32.25 68.3485 32.6061 71.3333 33.3182 73.7273C34.0455 76.1061 35.0682 77.8939 36.3864 79.0909C37.7045 80.2727 39.25 80.8636 41.0227 80.8636ZM85.0852 89.0227C81.1761 89.0076 77.8125 88.0455 74.9943 86.1364C72.1913 84.2273 70.0322 81.4621 68.517 77.8409C67.017 74.2197 66.2746 69.8636 66.2898 64.7727C66.2898 59.697 67.0398 55.3712 68.5398 51.7955C70.0549 48.2197 72.214 45.5 75.017 43.6364C77.8352 41.7576 81.1913 40.8182 85.0852 40.8182C88.9792 40.8182 92.3277 41.7576 95.1307 43.6364C97.9489 45.5152 100.116 48.2424 101.631 51.8182C103.146 55.3788 103.896 59.697 103.881 64.7727C103.881 69.8788 103.123 74.2424 101.608 77.8636C100.108 81.4848 97.9564 84.25 95.1534 86.1591C92.3504 88.0682 88.9943 89.0227 85.0852 89.0227ZM85.0852 80.8636C87.7519 80.8636 89.8807 79.5227 91.4716 76.8409C93.0625 74.1591 93.8504 70.1364 93.8352 64.7727C93.8352 61.2424 93.4716 58.303 92.7443 55.9545C92.0322 53.6061 91.017 51.8409 89.6989 50.6591C88.3958 49.4773 86.858 48.8864 85.0852 48.8864C82.4337 48.8864 80.3125 50.2121 78.7216 52.8636C77.1307 55.5152 76.3277 59.4848 76.3125 64.7727C76.3125 68.3485 76.6686 71.3333 77.3807 73.7273C78.108 76.1061 79.1307 77.8939 80.4489 79.0909C81.767 80.2727 83.3125 80.8636 85.0852 80.8636Z" fill="black"/>
</svg>
