<svg width="101" height="101" viewBox="0 0 101 101" fill="none" xmlns="http://www.w3.org/2000/svg">
<path d="M72.2667 0.422852H29.4096C13.63 0.422852 0.838135 13.2147 0.838135 28.9943V71.8514C0.838135 87.631 13.63 100.423 29.4096 100.423H72.2667C88.0463 100.423 100.838 87.631 100.838 71.8514V28.9943C100.838 13.2147 88.0463 0.422852 72.2667 0.422852Z" fill="#06B58B"/>
<path d="M31.1592 78.9948L26.3379 73.7091C33.0879 67.602 41.7664 64.209 50.8021 64.209C59.8378 64.209 68.5522 67.5662 75.2665 73.7091L70.4449 78.9948C65.0164 74.0662 58.0521 71.3518 50.8021 71.3518C43.5521 71.3518 36.5523 74.0662 31.1237 78.9948H31.1592Z" fill="white"/>
<path d="M54.1236 21.8516H33.1948V28.9944H54.1236C58.0521 28.9944 61.2664 32.2087 61.2664 36.1373V42.7801C61.2664 46.7087 58.0521 49.9229 54.1236 49.9229H47.4805C43.552 49.9229 40.3377 46.7087 40.3377 42.7801V38.28H33.1948V42.7801C33.1948 50.6729 39.5877 57.0658 47.4805 57.0658H54.1236C62.0164 57.0658 68.4093 50.6729 68.4093 42.7801V36.1373C68.4093 28.2444 62.0164 21.8516 54.1236 21.8516Z" fill="white"/>
</svg>
