<svg width="130" height="130" viewBox="0 0 130 130" fill="none" xmlns="http://www.w3.org/2000/svg">
<path d="M63.1957 12.5861C65.1413 14.0499 66.2222 16.0447 66.4383 18.5707L66.4722 18.5513L66.4721 19.1439C66.4765 19.2753 66.4787 19.408 66.4787 19.5421L66.4721 19.5457L66.4721 70.8151C66.5176 73.4895 67.517 75.6073 69.4703 77.1684C72.3982 79.2596 75.4512 79.454 78.6294 77.7515L37.0683 101.69C33.9831 103.279 31.0322 103.141 28.2155 101.276C26.274 99.8155 25.1936 97.826 24.9743 95.3078L24.9325 95.3318L24.9326 42.812C24.8338 40.2483 23.8366 38.2089 21.9409 36.6938C21.0056 36.0258 20.0575 35.5513 19.0967 35.2704C17.732 34.9092 17.732 33.2068 18.738 32.6801C21.0305 31.3597 32.8988 24.5238 54.3429 12.1726C57.4281 10.5835 60.3791 10.7214 63.1957 12.5861Z" fill="#9DE8FF"/>
<path d="M66.472 70.8079C66.4429 65.6445 62.2284 58.1373 53.6907 58.1373C51.3183 58.1373 49.1069 58.7573 47.0566 59.9971L85.1604 38.0562C87.0493 36.9588 89.2462 36.3301 91.5906 36.3301C98.621 36.3301 104.326 41.9843 104.372 48.9767C104.372 48.9781 104.372 49.0065 104.372 49.0621L104.372 87.79C104.418 90.4635 105.417 92.5806 107.37 94.1413C108.316 94.8171 109.275 95.2948 110.248 95.5744C111.649 96.0291 111.488 97.668 110.58 98.1513C105.284 101.202 94.6267 107.35 78.608 116.598C75.5228 118.187 72.5719 118.049 69.7552 116.184C67.8089 114.72 66.728 112.724 66.5124 110.197L66.4722 110.22V100.642C66.4721 90.69 66.4721 70.8199 66.472 70.8079Z" fill="#106BF3"/>
<path d="M53.6907 58.1373C60.7497 58.1373 66.4722 63.8376 66.4722 70.8692C66.4722 77.9274 66.4722 82.5578 66.4722 84.7602C66.4722 84.7602 44.4801 97.4179 41.2926 99.2526C41.0435 99.3959 36.9265 101.759 36.9265 101.759C40.583 99.3959 40.9093 96.2258 40.9093 94.8181C40.9093 90.7365 40.9093 82.7535 40.9093 70.8692C40.9093 63.8376 46.6317 58.1373 53.6907 58.1373Z" fill="#57AAF9"/>
</svg>
