<?xml version="1.0" encoding="UTF-8"?>
<!-- Generator: Adobe Illustrator 28.0.0, SVG Export Plug-In . SVG Version: 6.00 Build 0)  -->
<svg version="1.1" id="Layer_1" xmlns="http://www.w3.org/2000/svg" xmlns:xlink="http://www.w3.org/1999/xlink" x="0px" y="0px" viewBox="0 0 1000 500" style="enable-background:new 0 0 1000 500;" xml:space="preserve">
<style type="text/css">
	.st0{enable-background:new    ;}
	.st1{display:none;fill:#1A1851;}
	.st2{fill:#FFFFFF;}
	.st3{fill:url(#SVGID_1_);}
	.st4{display:none;opacity:0.115;enable-background:new    ;}
	.st5{display:inline;}
	.st6{fill:#010101;}
</style>
<g class="st0">
	<rect x="-1075" y="-650" class="st1" width="3150" height="1800"/>
	<path class="st2" d="M161.4,208.1c-4.7,0-8.8,1.7-11.9,5c-3.1,3.1-4.7,7.2-4.7,11.9v92.5c0,4.7,1.6,8.8,4.7,12.1v0l0,0   c3.1,3.1,7.2,4.7,11.9,4.7s8.8-1.6,11.9-4.7l0,0v0c3.1-3.3,4.7-7.4,4.7-12.1V225c0-4.7-1.6-8.8-4.7-11.9   C170.2,209.8,166.1,208.1,161.4,208.1z M161.4,163.3c-5.4,0-9.7,0.9-12.8,3c-3.2,2.1-4.5,6.1-4.5,11.1v4.6c0,4.9,1.2,8.8,4.2,11.1   c2.9,2.3,7.2,3.1,12.9,3.1c5.7,0,10-0.8,13.1-2.8l0.1-0.1c3.1-2.3,4.5-6.3,4.5-11.4v-4.6c0-4.9-1.2-8.8-4.2-11.1   C171.7,164.1,167.3,163.3,161.4,163.3z M26,160.9c-4.7,0-8.8,1.7-11.9,5c0,0,0,0,0,0c-3.1,3.1-4.7,7.2-4.7,11.9v139.8   c0,4.7,1.6,8.8,4.7,12.1l0,0v0c3.1,3.1,7.2,4.7,11.9,4.7s8.8-1.6,11.9-4.7l0,0v0c3.1-3.3,4.7-7.4,4.7-12.1v-57.9   c0-5.1,1-9.5,3-13.4c2.1-4.1,5.1-7.2,9.2-9.7c4-2.4,8.9-3.6,14.8-3.6c6.1,0,10.5,1.2,13.4,3.5c3.1,2.3,5.2,5.4,6.3,9.4v0   c1.2,4,1.9,8.6,1.9,13.8v57.9c0,4.7,1.6,8.8,4.7,12.1v0l0,0c3.1,3.1,7.2,4.7,11.9,4.7s8.8-1.6,11.9-4.7l0,0v0   c3.1-3.3,4.7-7.4,4.7-12.1v-57.9c0-10.4-1.2-19.8-3.5-28.3v0c-2.4-8.8-6.8-15.9-13.3-21.2c-6.5-5.4-15.8-8-27.8-8   c-5.6,0-10.8,0.9-15.6,2.8c-4.7,1.7-9,4-12.9,6.8c-3.4,2.5-6.2,5.3-8.7,8.3v-42.3c0-4.6-1.6-8.7-4.7-11.8v0   C34.8,162.6,30.7,160.9,26,160.9z"/>
	<g transform="matrix(1, 0, 0, 1, -0.164933, -119.430786)">
		
			<linearGradient id="SVGID_1_" gradientUnits="userSpaceOnUse" x1="197.0649" y1="186.5508" x2="233.4749" y2="186.5508" gradientTransform="matrix(1 0 0 -1 -0.1649 621.4308)">
			<stop offset="0" style="stop-color:#D94498"/>
			<stop offset="1" style="stop-color:#D94498"/>
		</linearGradient>
		<path class="st3" d="M213.5,416.2c-5.1,0-9.4,1.5-12.4,4.5c-2.9,2.9-4.2,7.1-4.2,12.1v4.1c0,5.1,1.3,9.3,4.2,12.3l0.1,0l0.1,0.1    c3,2.9,7.3,4.2,12.3,4.2h3.2c5.1,0,9.2-1.3,12.1-4.2c3-3,4.5-7.3,4.5-12.4v-4.1c0-5-1.4-9.2-4.5-12.1c-2.9-3-7.1-4.5-12.1-4.5    L213.5,416.2L213.5,416.2z"/>
		<g>
			<defs>
				<path id="SVGID_00000020383914003883730200000016459099880028545718_" d="M213.5,416.2c-5.1,0-9.4,1.5-12.4,4.5      c-2.9,2.9-4.2,7.1-4.2,12.1v4.1c0,5.1,1.3,9.3,4.2,12.3l0.1,0l0.1,0.1c3,2.9,7.3,4.2,12.3,4.2h3.2c5.1,0,9.2-1.3,12.1-4.2      c3-3,4.5-7.3,4.5-12.4v-4.1c0-5-1.4-9.2-4.5-12.1c-2.9-3-7.1-4.5-12.1-4.5L213.5,416.2L213.5,416.2z"/>
			</defs>
			<clipPath id="SVGID_00000087381360724314945450000017895994271053526426_">
				<use xlink:href="#SVGID_00000020383914003883730200000016459099880028545718_" style="overflow:visible;"/>
			</clipPath>
		</g>
	</g>
	<path class="st2" d="M575.7,228.4c4.7,0,9.1,1,13.2,3.2l0.1,0c4.3,2,7.8,4.7,10.5,8.2v0c2.7,3.3,4.1,7,4.5,11.1h-58.7   c0.2-0.8,0.1-2.2,0.4-2.9c1.7-5,4-8.8,6.8-11.7c2.9-2.9,6.2-4.9,10.1-6.1C566.6,229.1,570.9,228.4,575.7,228.4L575.7,228.4   L575.7,228.4z M309.1,228.4c4.7,0,9.1,1,13.2,3.2l0.1,0c4.3,2,7.8,4.7,10.5,8.2v0l0,0c2.7,3.3,4.1,7,4.5,11.1h-58.7   c0.2-0.8,0.1-2.2,0.4-2.9c1.7-5,4-8.8,6.8-11.7c2.9-2.9,6.2-4.9,10.1-6.1C300.1,229.1,304.4,228.4,309.1,228.4L309.1,228.4   L309.1,228.4z M395,200.1c-4.8,0-9,1.7-12,5c-2.8,3-4.4,6.4-4.4,9.9c0,1.9,0.2,3.6,0.5,5.1l0,0.1l0,0.1c0.5,1.3,0.9,2.4,1.2,3.2v0   l45.3,100.3c0,0,0,0,0,0v0c1.6,3.7,4,6.6,7.1,8.5l0,0v0c3.2,1.8,6.7,2.4,10.2,1.9c6.3-0.4,11.2-4.1,14-10.4v0l45.5-100.3v0   c0.5-1.2,0.9-2.4,1.2-3.8v0c0.6-1.5,0.9-2.9,0.9-4.3c0-4.2-1.6-7.9-4.5-10.7c-2.8-2.9-6.6-4.4-11.1-4.5c-3.3-0.2-6.3,0.6-8.9,2.4   c-2.5,1.8-4.5,4.5-6,8L443,283.2l-31.8-72.6c-1.4-3.4-3.7-6.1-6.7-7.8C401.6,201,398.4,200.1,395,200.1L395,200.1L395,200.1z    M937.8,197.6c-8.2,0-16.1,1.6-23.7,4.8v0c-7.4,3.2-13.5,7.8-18.3,13.7c-4.8,6-7.3,13.5-7.3,21.9c0,7.4,1.4,13.7,4.4,18.8   c2.9,4.9,6.7,9,11.3,12.1l0,0l0,0c4.5,2.8,9.4,5.2,14.8,7c5.4,1.8,10.6,3.4,15.7,4.9h0l0,0c4.8,1.3,9.1,2.6,13,4.1v0h0   c3.9,1.4,6.9,3.1,9.1,5c2,1.8,3,3.9,3,7c0,3.9-1,6.4-2.8,8c-1.8,1.7-4,2.8-6.6,3.4c-2.8,0.5-5.4,0.8-7.7,0.9   c-7.5,0-13.7-1.3-18.5-3.7c-5-2.5-9.8-6-14.3-10.6c-3-3-6.3-4.7-9.8-4.9c-3.3-0.4-6.6,0.4-9.5,2.2v0c-4.4,2.8-7.1,6.6-7.3,10.9   c-0.2,3.9,0.6,7.3,2.6,10v0c6.5,8.7,14.9,14.9,24.8,18.5v0c9.8,3.3,19.6,5,29.4,5c7.9,0,15.6-1.5,23.2-4.5v0   c7.6-3.2,13.9-7.9,19-14c5.2-6.2,7.8-13.8,7.8-22.5c0-7.4-1.3-13.6-4.2-18.5c-2.7-4.9-6.4-9-10.8-12.1c-4.4-3-9.2-5.5-14.3-7.3   c-5.1-1.8-10.1-3.4-15-4.7c-4.7-1.3-9.1-2.6-13.2-3.8v0c-3.9-1.4-6.9-3.1-9.1-5c-2-1.9-3-4.2-3-7.5c0-3.7,0.9-5.9,2.5-7.2l0,0l0,0   c1.8-1.7,3.9-2.7,6.3-3.2l0,0l0,0c2.8-0.6,5.3-0.9,7.6-0.9c5.8,0,10.7,1,15,3l0,0c4.5,2,7.9,4.6,10.4,7.9l0.1,0.1l0.1,0.1   c2.5,2.3,5.6,3.6,9.2,3.9h0l0.1,0c3.7,0.2,7.1-0.9,9.9-3.1c3.8-3,5.8-6.9,5.4-11c-0.4-3.7-1.5-7-3.6-9.8v-0.1   c-3.6-4.6-8.1-8.3-13.3-11c-5.2-2.8-10.6-4.8-16.3-6C948.6,198.3,943.1,197.6,937.8,197.6L937.8,197.6z M726.8,197.6   c-5.7,0-11.1,0.9-16,2.8c-4.9,1.7-9.3,4-13.2,6.9c-3.6,2.6-6.7,5.6-9.4,8.7c-0.2-4.2-1.7-8-4.5-10.9c-3.1-3.3-7.2-5-11.9-5   s-8.8,1.7-11.9,5c-3.1,3.1-4.7,7.2-4.7,11.9v100.6c0,4.7,1.6,8.8,4.7,12.1l0,0v0c3.1,3.1,7.2,4.7,11.9,4.7c4.7,0,8.8-1.6,11.9-4.7   v0l0,0c3.1-3.3,4.7-7.4,4.7-12.1v-62.4c0-5.1,1.1-9.5,3.2-13.4v0c0,0,0,0,0,0c2.3-4.1,5.4-7.3,9.5-9.7c4.2-2.4,9.3-3.6,15.6-3.6   c6.4,0,11.1,1.3,14.2,3.5c3.2,2.3,5.4,5.4,6.5,9.4l0,0.1v0c1.4,4,2.1,8.5,2.1,13.7v62.3c0,4.7,1.6,8.8,4.7,12.1l0,0v0   c3.1,3.1,7.2,4.7,11.9,4.7c4.7,0,8.8-1.6,11.9-4.7v0l0,0c3.1-3.3,4.7-7.4,4.7-12.1v-62.3c0-10.4-1.2-19.8-3.7-28.3v0   c-2.4-8.8-6.9-15.9-13.6-21.2C748.7,200.2,739.1,197.6,726.8,197.6z M575.7,197.6c-11.1,0-21.6,2.9-31.5,8.5   c-9.9,5.7-18,13.9-24.1,24.6v0c-6.1,10.6-9,23.4-9,38.3c0,12.8,2.8,24.3,8.3,34.6v0c5.7,10.2,13.8,18.4,24.1,24.4l0,0   c10.6,5.9,22.9,8.8,37,8.8c8.3,0,16.4-1.3,24.3-4l0,0c7.8-2.8,13.9-6,18.4-9.8c4.8-3.8,7.6-8.4,7.6-13.5c0-3.7-1.5-7.2-4.2-9.9   c-2.6-2.8-6.2-4.3-10.2-4.3c-3,0-6,0.8-9.2,2.4l0,0l0,0c-1.8,1-3.9,2.2-6.2,3.7c-1.9,1.1-4.5,2.2-8,3.2c-3.3,0.9-7.9,1.4-13.8,1.4   c-6.2,0-12-1.5-17.5-4.4c-5.4-3.1-9.8-7.4-13.4-13.2c0,0,0,0,0,0c-1.6-2.7-2.7-5.8-3.6-9.1h77.9c4.3,0,8.2-1.4,11.5-4.1   c3.3-2.8,5.2-6.6,5.3-11v-0.1c0-9-1.8-17.6-5.3-25.6c-3.3-8-7.9-15-13.8-21.1v0c-5.9-6.2-12.7-11-20.3-14.6h0   C592.3,199.4,584.2,197.6,575.7,197.6L575.7,197.6L575.7,197.6z M309.1,197.6c-11.1,0-21.6,2.9-31.4,8.5   c-9.9,5.7-18,13.9-24.1,24.6v0c-6,10.6-9,23.4-9,38.3c0,12.8,2.8,24.3,8.3,34.6v0c5.7,10.2,13.8,18.4,24.1,24.4v0   c10.6,5.9,23,8.8,37,8.8c8.3,0,16.4-1.3,24.3-4h0v0c7.8-2.8,13.9-6,18.4-9.8c4.8-3.8,7.5-8.4,7.5-13.5c0-3.7-1.5-7.2-4.2-9.9   c-2.6-2.8-6.2-4.3-10.2-4.3c-3,0-6,0.8-9.2,2.4l0,0l0,0c-1.8,1-3.9,2.2-6.2,3.7c-1.9,1.1-4.5,2.2-8,3.2c-3.3,0.9-7.9,1.4-13.8,1.4   c-6.2,0-12-1.5-17.5-4.4c-5.4-3.1-9.8-7.4-13.4-13.2c0,0,0,0,0,0c-1.6-2.7-2.7-5.8-3.6-9.1h77.8c4.3,0,8.2-1.4,11.5-4.1   c3.3-2.8,5.2-6.6,5.4-11v-0.1c0-9-1.8-17.6-5.3-25.6c-3.3-8-7.9-15-13.8-21.1v0c-5.9-6.2-12.6-11-20.3-14.6   C325.7,199.4,317.6,197.6,309.1,197.6L309.1,197.6L309.1,197.6z M824.2,172.1c-4.7,0-8.9,1.7-12.1,5c-3.1,3.1-4.7,7.2-4.7,11.9   v13.6h-9.2c-4.3,0-8.2,1.5-11.1,4.5c-3,2.8-4.5,6.5-4.5,10.7c0,4.3,1.5,8.2,4.5,11.2c3,3,6.8,4.5,11.2,4.5h9.2v65.2   c0,8.2,1.2,14.7,3.9,19.7c2.6,4.8,5.8,8.5,9.7,11l0,0l0,0c3.9,2.2,8.1,3.7,12.4,4.4l0.1,0c4.3,0.5,8.2,0.7,11.7,0.7   c6,0,11.7-1.6,16.9-4.7c5.4-3.2,8.5-7.7,8.5-12.9c0-4.1-1.1-7.5-3.4-10.1c-2-2.4-4.7-3.9-7.6-3.9c-2.4,0-4.6,0.5-6.5,1.4l0.1-0.1   c-1.4,0.5-2.9,0.8-4.6,0.8c-1.5,0-3-0.3-4.3-0.8c-1.1-0.5-2-1.2-2.7-2.4c-0.6-1.1-0.9-2.5-0.9-4.5v-64h15.3c4.3,0,8.1-1.4,11.1-4.2   l0,0l0,0c2.9-2.9,4.5-6.7,4.5-10.9c0-4.3-1.5-8.2-4.5-11.2c-3-2.9-6.8-4.5-11.2-4.5h-15.3v-13.6c0-4.6-1.6-8.7-4.7-11.8   C832.9,173.8,828.9,172.1,824.2,172.1L824.2,172.1z"/>
	<g class="st4">
		<g class="st5">
			<path class="st6" d="M577.2,222.7c0-32.6-18.4-60.1-45.6-73.1c-0.1-0.1-0.2-0.3-0.3-0.4c-0.2-0.3-0.4-0.5-0.6-0.8     c-0.2-0.3-0.4-0.5-0.7-0.8c-0.2-0.3-0.4-0.5-0.7-0.8c-0.2-0.3-0.4-0.5-0.7-0.8c-0.2-0.3-0.4-0.5-0.7-0.8     c-0.2-0.3-0.4-0.5-0.7-0.8c-0.2-0.3-0.5-0.5-0.7-0.8c-0.2-0.2-0.5-0.5-0.7-0.8s-0.5-0.5-0.7-0.8s-0.5-0.5-0.7-0.8     c-0.2-0.2-0.5-0.5-0.7-0.7c-0.2-0.2-0.5-0.5-0.7-0.7c-0.2-0.2-0.5-0.5-0.7-0.7c-0.2-0.2-0.5-0.5-0.7-0.7     c-0.2-0.2-0.5-0.5-0.7-0.7c-0.2-0.2-0.5-0.5-0.7-0.7c-0.2-0.2-0.5-0.5-0.7-0.7s-0.5-0.5-0.8-0.7c-0.2-0.2-0.5-0.5-0.8-0.7     c-0.2-0.2-0.5-0.5-0.8-0.7c-0.2-0.2-0.5-0.4-0.8-0.7s-0.5-0.4-0.8-0.7c-0.2-0.2-0.5-0.4-0.8-0.7s-0.5-0.4-0.8-0.7     s-0.5-0.4-0.8-0.7c-0.3-0.2-0.5-0.4-0.8-0.6c-0.3-0.2-0.5-0.4-0.8-0.6c-0.3-0.2-0.5-0.4-0.8-0.6s-0.5-0.4-0.8-0.6     c-0.3-0.2-0.5-0.4-0.8-0.6s-0.5-0.4-0.8-0.6c-0.3-0.2-0.5-0.4-0.8-0.6c-0.3-0.2-0.5-0.4-0.8-0.6c-0.3-0.2-0.5-0.4-0.8-0.6     c-0.3-0.2-0.6-0.4-0.8-0.6c-0.3-0.2-0.6-0.4-0.9-0.6c-0.3-0.2-0.6-0.4-0.9-0.6c-0.3-0.2-0.6-0.4-0.9-0.6     c-0.3-0.2-0.6-0.4-0.9-0.6c-0.3-0.2-0.6-0.4-0.9-0.6c-0.3-0.2-0.6-0.4-0.9-0.5s-0.6-0.4-0.9-0.5s-0.6-0.3-0.9-0.5     c-0.3-0.2-0.6-0.3-0.9-0.5s-0.6-0.3-0.9-0.5c-0.3-0.2-0.6-0.3-0.9-0.5c-0.3-0.2-0.6-0.3-0.9-0.5c-0.3-0.2-0.6-0.3-0.9-0.5     c-0.3-0.2-0.6-0.3-0.9-0.5c-0.3-0.2-0.6-0.3-0.9-0.5c-0.3-0.2-0.6-0.3-0.9-0.5c-0.3-0.2-0.6-0.3-0.9-0.5     c-0.3-0.2-0.6-0.3-0.9-0.4c-0.3-0.2-0.6-0.3-0.9-0.4c-0.3-0.2-0.6-0.3-0.9-0.4s-0.6-0.3-0.9-0.4s-0.6-0.3-0.9-0.4     s-0.6-0.3-0.9-0.4c-0.3-0.1-0.6-0.3-0.9-0.4c-0.3-0.1-0.6-0.3-0.9-0.4c-0.3-0.1-0.6-0.3-1-0.4c-0.3-0.1-0.6-0.2-1-0.4     c-0.3-0.1-0.6-0.2-1-0.4s-0.6-0.2-1-0.4c-0.3-0.1-0.6-0.2-1-0.3c-0.3-0.1-0.6-0.2-1-0.3c-0.3-0.1-0.6-0.2-1-0.3     c-0.3-0.1-0.6-0.2-1-0.3s-0.6-0.2-1-0.3c-0.3-0.1-0.6-0.2-1-0.3c-0.3-0.1-0.6-0.2-1-0.3c-0.3-0.1-0.6-0.2-1-0.3s-0.7-0.2-1-0.3     c-0.3-0.1-0.6-0.2-1-0.3c-0.3-0.1-0.7-0.2-1-0.3c-0.3-0.1-0.7-0.2-1-0.3c-0.3-0.1-0.7-0.2-1-0.2c-0.3-0.1-0.7-0.2-1-0.2     c-0.3-0.1-0.7-0.2-1-0.2c-0.3-0.1-0.7-0.2-1-0.2s-0.7-0.2-1-0.2s-0.7-0.1-1-0.2c-0.3-0.1-0.7-0.1-1-0.2c-0.3-0.1-0.7-0.1-1-0.2     c-0.3-0.1-0.7-0.1-1-0.2c-0.3-0.1-0.7-0.1-1-0.2c-0.3-0.1-0.7-0.1-1-0.2c-0.3-0.1-0.7-0.1-1-0.2s-0.7-0.1-1-0.2     c-0.3-0.1-0.7-0.1-1-0.1c-0.3-0.1-0.7-0.1-1-0.1c-0.3,0-0.7-0.1-1-0.1c-0.3,0-0.7-0.1-1-0.1s-0.7-0.1-1-0.1s-0.7-0.1-1-0.1     s-0.7-0.1-1-0.1s-0.7-0.1-1-0.1s-0.7-0.1-1-0.1s-0.7-0.1-1-0.1s-0.7,0-1-0.1s-0.7,0-1-0.1c-0.3,0-0.7,0-1,0c-0.3,0-0.7,0-1,0     s-0.7,0-1,0c-0.3,0-0.7,0-1,0c-0.3,0-0.7,0-1,0c0,0,0,0-0.1,0c-0.3,0-0.7,0-1,0s-0.7,0-1,0c-0.3,0-0.7,0-1,0s-0.7,0-1,0     c-0.3,0-0.7,0-1,0.1c-0.3,0-0.7,0-1,0.1c-0.3,0-0.7,0-1,0.1c-0.3,0-0.7,0-1,0.1c-0.3,0-0.7,0.1-1,0.1c-0.3,0-0.7,0.1-1,0.1     s-0.7,0.1-1,0.1s-0.7,0.1-1,0.1c-0.3,0-0.7,0.1-1,0.1s-0.7,0.1-1,0.1s-0.7,0.1-1,0.1c-0.3,0-0.7,0.1-1,0.1     c-0.3,0.1-0.7,0.1-1,0.2c-0.3,0.1-0.7,0.1-1,0.2c-0.3,0.1-0.7,0.1-1,0.2c-0.3,0.1-0.7,0.1-1,0.2s-0.7,0.1-1,0.2s-0.7,0.1-1,0.2     c-0.3,0.1-0.7,0.1-1,0.2c-0.3,0.1-0.7,0.1-1,0.2c-0.3,0.1-0.7,0.1-1,0.2c-0.3,0.1-0.7,0.1-1,0.2s-0.7,0.2-1,0.2s-0.7,0.2-1,0.2     c-0.3,0.1-0.7,0.2-1,0.2s-0.7,0.2-1,0.3c-0.3,0.1-0.7,0.2-1,0.3c-0.3,0.1-0.7,0.2-1,0.3c-0.3,0.1-0.7,0.2-1,0.3     c-0.3,0.1-0.7,0.2-1,0.3s-0.6,0.2-1,0.3c-0.3,0.1-0.6,0.2-1,0.3c-0.3,0.1-0.6,0.2-1,0.3c-0.3,0.1-0.6,0.2-1,0.3     c-0.3,0.1-0.6,0.2-1,0.3c-0.3,0.1-0.6,0.2-1,0.3c-0.3,0.1-0.6,0.2-1,0.3c-0.3,0.1-0.6,0.2-1,0.4c-0.3,0.1-0.6,0.2-1,0.4     c-0.3,0.1-0.6,0.2-1,0.4c-0.3,0.1-0.6,0.2-1,0.4s-0.6,0.3-1,0.4s-0.6,0.3-1,0.4c-0.3,0.1-0.6,0.3-0.9,0.4     c-0.3,0.1-0.6,0.3-0.9,0.4c-0.3,0.1-0.6,0.3-0.9,0.4s-0.6,0.3-0.9,0.4c-0.3,0.1-0.6,0.3-0.9,0.4s-0.6,0.3-0.9,0.4     c-0.3,0.2-0.6,0.3-0.9,0.4c-0.3,0.2-0.6,0.3-0.9,0.5c-0.3,0.2-0.6,0.3-0.9,0.5c-0.3,0.2-0.6,0.3-0.9,0.5     c-0.3,0.2-0.6,0.3-0.9,0.5s-0.6,0.3-0.9,0.5c-0.3,0.2-0.6,0.3-0.9,0.5c-0.3,0.2-0.6,0.3-0.9,0.5c-0.3,0.2-0.6,0.3-0.9,0.5     c-0.3,0.2-0.6,0.3-0.9,0.5s-0.6,0.3-0.9,0.5s-0.6,0.3-0.9,0.5s-0.6,0.4-0.9,0.5s-0.6,0.4-0.9,0.6c-0.3,0.2-0.6,0.4-0.9,0.6     c-0.3,0.2-0.6,0.4-0.9,0.6c-0.3,0.2-0.6,0.4-0.9,0.6s-0.6,0.4-0.8,0.6c-0.3,0.2-0.6,0.4-0.8,0.6s-0.5,0.4-0.8,0.6     s-0.5,0.4-0.8,0.6s-0.5,0.4-0.8,0.6s-0.5,0.4-0.8,0.6c-0.3,0.2-0.5,0.4-0.8,0.6c-0.3,0.2-0.5,0.4-0.8,0.6s-0.5,0.4-0.8,0.6     c-0.3,0.2-0.5,0.4-0.8,0.6s-0.5,0.4-0.8,0.6s-0.5,0.4-0.8,0.7s-0.5,0.4-0.8,0.7c-0.3,0.2-0.5,0.4-0.8,0.7s-0.5,0.4-0.8,0.7     c-0.2,0.2-0.5,0.4-0.8,0.7c-0.2,0.2-0.5,0.5-0.8,0.7s-0.5,0.5-0.8,0.7c-0.2,0.2-0.5,0.5-0.7,0.7c-0.2,0.2-0.5,0.5-0.7,0.7     c-0.2,0.2-0.5,0.5-0.7,0.7c-0.2,0.2-0.5,0.5-0.7,0.7s-0.5,0.5-0.7,0.7c-0.2,0.2-0.5,0.5-0.7,0.7c-0.2,0.2-0.5,0.5-0.7,0.7     c-0.2,0.2-0.5,0.5-0.7,0.8s-0.5,0.5-0.7,0.8c-0.2,0.2-0.5,0.5-0.7,0.8c-0.2,0.2-0.5,0.5-0.7,0.8c-0.2,0.2-0.5,0.5-0.7,0.8     c-0.2,0.3-0.5,0.5-0.7,0.8c-0.2,0.3-0.5,0.5-0.7,0.8c-0.2,0.3-0.4,0.5-0.7,0.8c-0.2,0.3-0.4,0.5-0.6,0.8     c-0.2,0.3-0.4,0.5-0.6,0.8c-0.2,0.3-0.4,0.5-0.6,0.8c-0.2,0.3-0.4,0.5-0.6,0.8s-0.4,0.5-0.6,0.8c-0.2,0.3-0.4,0.5-0.6,0.8     c-0.2,0.3-0.4,0.6-0.6,0.8c-0.2,0.3-0.4,0.6-0.6,0.8s-0.4,0.6-0.6,0.8c-0.2,0.3-0.4,0.6-0.6,0.8c-0.2,0.3-0.4,0.6-0.6,0.8     c-0.2,0.3-0.4,0.6-0.6,0.9c-0.2,0.3-0.4,0.6-0.6,0.9c-0.2,0.3-0.4,0.6-0.6,0.9c-0.2,0.3-0.4,0.6-0.5,0.9s-0.4,0.6-0.5,0.9     c-0.2,0.3-0.4,0.6-0.5,0.9c-0.2,0.3-0.4,0.6-0.5,0.9c-0.2,0.3-0.4,0.6-0.5,0.9c-0.2,0.3-0.3,0.6-0.5,0.9s-0.3,0.6-0.5,0.9     c-0.2,0.3-0.3,0.6-0.5,0.9s-0.3,0.6-0.5,0.9c-0.2,0.3-0.3,0.6-0.5,0.9c-0.2,0.3-0.3,0.6-0.5,0.9c-0.2,0.3-0.3,0.6-0.5,0.9     c-0.2,0.3-0.3,0.6-0.5,0.9s-0.3,0.6-0.5,0.9c-0.1,0.3-0.3,0.6-0.5,0.9c-0.1,0.3-0.3,0.6-0.4,0.9s-0.3,0.6-0.4,0.9     c-0.1,0.3-0.3,0.6-0.4,0.9s-0.3,0.6-0.4,0.9c-0.1,0.3-0.3,0.6-0.4,0.9c-0.1,0.3-0.3,0.6-0.4,0.9c-0.1,0.3-0.3,0.6-0.4,0.9     c-0.1,0.3-0.2,0.6-0.4,0.9c-0.1,0.3-0.2,0.6-0.4,0.9c-0.1,0.3-0.2,0.6-0.4,1s-0.2,0.6-0.4,1s-0.2,0.6-0.3,1     c-0.1,0.3-0.2,0.6-0.3,1c-0.1,0.3-0.2,0.6-0.3,1s-0.2,0.6-0.3,1c-0.1,0.3-0.2,0.6-0.3,1c-0.1,0.3-0.2,0.6-0.3,1     c-0.1,0.3-0.2,0.6-0.3,1c-0.1,0.3-0.2,0.6-0.3,1s-0.2,0.7-0.3,1c-0.1,0.3-0.2,0.7-0.3,1s-0.2,0.7-0.3,1s-0.2,0.7-0.2,1     c-0.1,0.3-0.2,0.7-0.2,1s-0.2,0.7-0.2,1c-0.1,0.3-0.1,0.7-0.2,1c-0.1,0.3-0.1,0.7-0.2,1c-0.1,0.3-0.1,0.7-0.2,1     c-0.1,0.3-0.1,0.7-0.2,1c-0.1,0.3-0.1,0.7-0.2,1c-0.1,0.3-0.1,0.7-0.2,1s-0.1,0.7-0.2,1s-0.1,0.7-0.2,1c-0.1,0.3-0.1,0.7-0.2,1     c0,0.3-0.1,0.7-0.1,1s-0.1,0.7-0.1,1s-0.1,0.7-0.1,1c0,0.3-0.1,0.7-0.1,1c0,0.3-0.1,0.7-0.1,1c0,0.3-0.1,0.7-0.1,1     c0,0,0,0.1,0,0.1c-0.3,4.1-0.6,8.1-0.6,12.2h0v-0.6h0c0-4.5,0.4-8.9,0.7-13.2c0,0,0-0.1,0-0.1c0-0.4,0.1-0.7,0.1-1.1     c0-0.4,0.1-0.7,0.1-1.1c0-0.4,0.1-0.7,0.1-1.1c0-0.4,0.1-0.7,0.1-1.1c0-0.4,0.1-0.7,0.2-1.1c0.1-0.4,0.1-0.7,0.2-1.1     c0.1-0.4,0.1-0.7,0.2-1.1s0.1-0.7,0.2-1.1c0.1-0.4,0.1-0.7,0.2-1.1s0.1-0.7,0.2-1.1s0.1-0.7,0.2-1.1c0.1-0.4,0.1-0.7,0.2-1.1     s0.1-0.7,0.2-1.1c0.1-0.4,0.2-0.7,0.2-1.1s0.2-0.7,0.2-1.1c0.1-0.4,0.2-0.7,0.3-1.1s0.2-0.7,0.3-1.1s0.2-0.7,0.3-1.1     c0.1-0.4,0.2-0.7,0.3-1.1c0.1-0.4,0.2-0.7,0.3-1.1c0.1-0.4,0.2-0.7,0.3-1.1c0.1-0.4,0.2-0.7,0.3-1.1c0.1-0.4,0.2-0.7,0.3-1.1     c0.1-0.4,0.2-0.7,0.3-1.1c0.1-0.4,0.2-0.7,0.3-1.1c0.1-0.4,0.2-0.7,0.4-1.1s0.2-0.7,0.4-1.1s0.2-0.7,0.4-1     c0.1-0.4,0.2-0.7,0.4-1.1c0.1-0.3,0.3-0.7,0.4-1c0.1-0.4,0.3-0.7,0.4-1c0.1-0.3,0.3-0.7,0.4-1c0.1-0.3,0.3-0.7,0.4-1     s0.3-0.7,0.4-1c0.1-0.3,0.3-0.7,0.4-1c0.1-0.3,0.3-0.7,0.4-1c0.1-0.3,0.3-0.7,0.4-1c0.1-0.3,0.3-0.7,0.5-1c0.1-0.3,0.3-0.7,0.5-1     c0.2-0.3,0.3-0.7,0.5-1s0.3-0.7,0.5-1s0.3-0.7,0.5-1c0.2-0.3,0.3-0.7,0.5-1s0.3-0.7,0.5-1c0.2-0.3,0.3-0.7,0.5-1     c0.2-0.3,0.4-0.6,0.5-1c0.2-0.3,0.4-0.6,0.5-1s0.4-0.6,0.5-1c0.2-0.3,0.4-0.6,0.5-1c0.2-0.3,0.4-0.6,0.5-1     c0.2-0.3,0.4-0.6,0.6-0.9c0.2-0.3,0.4-0.6,0.6-0.9c0.2-0.3,0.4-0.6,0.6-0.9c0.2-0.3,0.4-0.6,0.6-0.9c0.2-0.3,0.4-0.6,0.6-0.9     c0.2-0.3,0.4-0.6,0.6-0.9s0.4-0.6,0.6-0.9c0.2-0.3,0.4-0.6,0.6-0.9s0.4-0.6,0.6-0.9c0.2-0.3,0.4-0.6,0.6-0.9s0.4-0.6,0.6-0.9     c0.2-0.3,0.4-0.6,0.6-0.9c0.2-0.3,0.4-0.6,0.7-0.9s0.4-0.6,0.7-0.9c0.2-0.3,0.5-0.6,0.7-0.9c0.2-0.3,0.5-0.6,0.7-0.9     c0.2-0.3,0.5-0.6,0.7-0.9s0.5-0.6,0.7-0.9c0.2-0.3,0.5-0.6,0.7-0.9c0.2-0.3,0.5-0.6,0.7-0.9s0.5-0.6,0.7-0.9s0.5-0.6,0.7-0.8     s0.5-0.6,0.7-0.8c0.2-0.3,0.5-0.6,0.7-0.8s0.5-0.6,0.8-0.8s0.5-0.5,0.8-0.8s0.5-0.5,0.8-0.8s0.5-0.5,0.8-0.8     c0.2-0.3,0.5-0.5,0.8-0.8c0.3-0.3,0.5-0.5,0.8-0.8s0.5-0.5,0.8-0.8c0.3-0.3,0.5-0.5,0.8-0.8c0.3-0.3,0.5-0.5,0.8-0.8     c0.3-0.2,0.5-0.5,0.8-0.8s0.5-0.5,0.8-0.8c0.3-0.2,0.5-0.5,0.8-0.8s0.6-0.5,0.8-0.7c0.3-0.2,0.5-0.5,0.8-0.7     c0.3-0.2,0.6-0.5,0.8-0.7c0.3-0.2,0.6-0.5,0.9-0.7s0.6-0.5,0.9-0.7c0.3-0.2,0.6-0.5,0.9-0.7c0.3-0.2,0.6-0.5,0.9-0.7     c0.3-0.2,0.6-0.5,0.9-0.7s0.6-0.4,0.9-0.7s0.6-0.4,0.9-0.7c0.3-0.2,0.6-0.4,0.9-0.7c0.3-0.2,0.6-0.4,0.9-0.7     c0.3-0.2,0.6-0.4,0.9-0.7s0.6-0.4,0.9-0.6c0.3-0.2,0.6-0.4,0.9-0.6c0.3-0.2,0.6-0.4,0.9-0.6c0.3-0.2,0.6-0.4,0.9-0.6     c0.3-0.2,0.6-0.4,0.9-0.6s0.6-0.4,0.9-0.6s0.6-0.4,0.9-0.6c0.3-0.2,0.6-0.4,0.9-0.6c0.3-0.2,0.6-0.4,1-0.6s0.6-0.4,1-0.6     s0.6-0.4,1-0.6c0.3-0.2,0.6-0.4,1-0.6c0.3-0.2,0.6-0.4,1-0.6c0.3-0.2,0.6-0.4,1-0.5s0.6-0.3,1-0.5s0.6-0.3,1-0.5     c0.3-0.2,0.6-0.3,1-0.5c0.3-0.2,0.7-0.3,1-0.5c0.3-0.2,0.7-0.3,1-0.5s0.7-0.3,1-0.5c0.3-0.2,0.7-0.3,1-0.5c0.3-0.2,0.7-0.3,1-0.5     c0.3-0.2,0.7-0.3,1-0.5c0.3-0.2,0.7-0.3,1-0.4c0.3-0.2,0.7-0.3,1-0.4c0.3-0.2,0.7-0.3,1-0.4s0.7-0.3,1-0.4s0.7-0.3,1-0.4     s0.7-0.3,1-0.4c0.3-0.1,0.7-0.3,1-0.4c0.3-0.1,0.7-0.3,1-0.4c0.3-0.1,0.7-0.3,1-0.4c0.4-0.1,0.7-0.2,1-0.4s0.7-0.2,1-0.4     c0.4-0.1,0.7-0.2,1-0.4c0.4-0.1,0.7-0.2,1-0.3c0.4-0.1,0.7-0.2,1.1-0.3c0.4-0.1,0.7-0.2,1.1-0.3c0.4-0.1,0.7-0.2,1.1-0.3     s0.7-0.2,1.1-0.3c0.4-0.1,0.7-0.2,1.1-0.3c0.4-0.1,0.7-0.2,1.1-0.3c0.4-0.1,0.7-0.2,1.1-0.3c0.4-0.1,0.7-0.2,1.1-0.3     c0.4-0.1,0.7-0.2,1.1-0.3s0.7-0.2,1.1-0.3c0.4-0.1,0.7-0.2,1.1-0.2s0.7-0.2,1.1-0.2c0.4-0.1,0.7-0.2,1.1-0.2     c0.4-0.1,0.7-0.2,1.1-0.2c0.4-0.1,0.7-0.1,1.1-0.2s0.7-0.1,1.1-0.2c0.4-0.1,0.7-0.1,1.1-0.2c0.4-0.1,0.7-0.1,1.1-0.2     s0.7-0.1,1.1-0.2c0.4-0.1,0.7-0.1,1.1-0.2c0.4-0.1,0.7-0.1,1.1-0.2s0.7-0.1,1.1-0.2s0.7-0.1,1.1-0.1c0.4,0,0.7-0.1,1.1-0.1     c0.4,0,0.7-0.1,1.1-0.1c0.4,0,0.7-0.1,1.1-0.1c0.4,0,0.7-0.1,1.1-0.1s0.7-0.1,1.1-0.1s0.7-0.1,1.1-0.1c0.4,0,0.7-0.1,1.1-0.1     c0.4,0,0.7,0,1.1-0.1s0.7,0,1.1-0.1c0.4,0,0.7,0,1.1-0.1c0.4,0,0.7,0,1.1,0s0.7,0,1.1,0c0.4,0,0.7,0,1.1,0c0.4,0,0.7,0,1.1,0     c0,0,0.1,0,0.1,0c0.4,0,0.7,0,1.1,0c0.4,0,0.7,0,1.1,0c0.4,0,0.7,0,1.1,0c0.4,0,0.7,0,1.1,0s0.7,0,1.1,0c0.4,0,0.7,0,1.1,0.1     c0.4,0,0.7,0,1.1,0.1s0.7,0,1.1,0.1s0.7,0.1,1.1,0.1s0.7,0.1,1.1,0.1s0.7,0.1,1.1,0.1s0.7,0.1,1.1,0.1c0.4,0,0.7,0.1,1.1,0.1     s0.7,0.1,1.1,0.1c0.4,0,0.7,0.1,1.1,0.1c0.4,0.1,0.7,0.1,1.1,0.2s0.7,0.1,1.1,0.2c0.4,0.1,0.7,0.1,1.1,0.2     c0.4,0.1,0.7,0.1,1.1,0.2c0.4,0.1,0.7,0.1,1.1,0.2s0.7,0.1,1.1,0.2c0.4,0.1,0.7,0.1,1.1,0.2s0.7,0.1,1.1,0.2     c0.4,0.1,0.7,0.2,1.1,0.2s0.7,0.2,1.1,0.2c0.4,0.1,0.7,0.2,1.1,0.2c0.4,0.1,0.7,0.2,1.1,0.2s0.7,0.2,1.1,0.3     c0.4,0.1,0.7,0.2,1.1,0.3c0.4,0.1,0.7,0.2,1.1,0.3c0.4,0.1,0.7,0.2,1.1,0.3c0.4,0.1,0.7,0.2,1.1,0.3c0.4,0.1,0.7,0.2,1.1,0.3     c0.4,0.1,0.7,0.2,1.1,0.3c0.4,0.1,0.7,0.2,1.1,0.3s0.7,0.2,1.1,0.3c0.4,0.1,0.7,0.2,1.1,0.3c0.4,0.1,0.7,0.2,1,0.3     c0.4,0.1,0.7,0.2,1,0.4c0.4,0.1,0.7,0.2,1,0.4c0.4,0.1,0.7,0.2,1,0.4c0.4,0.1,0.7,0.3,1,0.4s0.7,0.3,1,0.4s0.7,0.3,1,0.4     c0.3,0.1,0.7,0.3,1,0.4c0.3,0.1,0.7,0.3,1,0.4c0.3,0.1,0.7,0.3,1,0.4s0.7,0.3,1,0.4s0.7,0.3,1,0.4c0.3,0.2,0.7,0.3,1,0.4     c0.3,0.2,0.7,0.3,1,0.5c0.3,0.2,0.7,0.3,1,0.5c0.3,0.2,0.7,0.3,1,0.5s0.7,0.3,1,0.5c0.3,0.2,0.7,0.3,1,0.5s0.7,0.3,1,0.5     c0.3,0.2,0.7,0.3,1,0.5c0.3,0.2,0.6,0.3,1,0.5c0.3,0.2,0.6,0.3,1,0.5s0.6,0.4,1,0.5c0.3,0.2,0.6,0.4,1,0.6c0.3,0.2,0.6,0.4,1,0.6     c0.3,0.2,0.6,0.4,1,0.6c0.3,0.2,0.6,0.4,1,0.6c0.3,0.2,0.6,0.4,1,0.6c0.3,0.2,0.6,0.4,0.9,0.6s0.6,0.4,0.9,0.6s0.6,0.4,0.9,0.6     c0.3,0.2,0.6,0.4,0.9,0.6c0.3,0.2,0.6,0.4,0.9,0.6s0.6,0.4,0.9,0.6c0.3,0.2,0.6,0.4,0.9,0.6s0.6,0.4,0.9,0.6     c0.3,0.2,0.6,0.4,0.9,0.7c0.3,0.2,0.6,0.4,0.9,0.7c0.3,0.2,0.6,0.4,0.9,0.7c0.3,0.2,0.6,0.4,0.9,0.7c0.3,0.2,0.6,0.5,0.9,0.7     c0.3,0.2,0.6,0.5,0.9,0.7s0.6,0.5,0.9,0.7c0.3,0.2,0.6,0.5,0.8,0.7c0.3,0.2,0.6,0.5,0.9,0.7c0.3,0.2,0.6,0.5,0.8,0.7     s0.6,0.5,0.8,0.7s0.6,0.5,0.8,0.7s0.5,0.5,0.8,0.7c0.3,0.2,0.5,0.5,0.8,0.8s0.5,0.5,0.8,0.8s0.5,0.5,0.8,0.8s0.5,0.5,0.8,0.8     c0.3,0.2,0.5,0.5,0.8,0.8c0.3,0.3,0.5,0.5,0.8,0.8c0.3,0.3,0.5,0.5,0.8,0.8c0.3,0.3,0.5,0.5,0.8,0.8c0.2,0.3,0.5,0.5,0.8,0.8     c0.2,0.3,0.5,0.5,0.8,0.8s0.5,0.5,0.8,0.8c0.2,0.3,0.5,0.5,0.8,0.8c0.2,0.3,0.5,0.6,0.7,0.8c0.2,0.3,0.5,0.6,0.7,0.8     s0.5,0.6,0.7,0.8s0.5,0.6,0.7,0.8c0.2,0.3,0.5,0.6,0.7,0.9c0.2,0.3,0.5,0.6,0.7,0.9c0.2,0.3,0.5,0.6,0.7,0.9     c0.2,0.3,0.5,0.6,0.7,0.9s0.5,0.6,0.7,0.9c0.2,0.3,0.5,0.6,0.7,0.9c0.2,0.3,0.4,0.6,0.7,0.9s0.4,0.6,0.7,0.9s0.4,0.6,0.7,0.9     c0.2,0.3,0.4,0.6,0.7,0.9c0.2,0.3,0.4,0.6,0.6,0.9c0.2,0.3,0.4,0.6,0.6,0.9c0.2,0.3,0.4,0.6,0.6,0.9c0.2,0.3,0.4,0.6,0.6,0.9     s0.4,0.6,0.6,0.9c0.2,0.3,0.4,0.6,0.6,0.9c0.2,0.3,0.4,0.6,0.6,0.9c0.2,0.3,0.4,0.6,0.6,0.9c0.2,0.3,0.4,0.6,0.6,0.9     c0.2,0.3,0.4,0.6,0.6,1c0.2,0.3,0.4,0.6,0.6,1s0.4,0.6,0.5,1c0.2,0.3,0.4,0.6,0.5,1c0.2,0.3,0.3,0.6,0.5,1c0.2,0.3,0.3,0.6,0.5,1     c0.2,0.3,0.3,0.7,0.5,1c0.2,0.3,0.3,0.7,0.5,1c0.2,0.3,0.3,0.7,0.5,1s0.3,0.7,0.5,1s0.3,0.7,0.5,1s0.3,0.7,0.5,1     c0.2,0.3,0.3,0.7,0.5,1s0.3,0.7,0.5,1c0.2,0.3,0.3,0.7,0.5,1c0.2,0.3,0.3,0.7,0.4,1c0.1,0.3,0.3,0.7,0.4,1c0.1,0.3,0.3,0.7,0.4,1     c0.1,0.3,0.3,0.7,0.4,1c0.1,0.3,0.3,0.7,0.4,1c0.1,0.4,0.3,0.7,0.4,1c0.1,0.4,0.3,0.7,0.4,1c0.1,0.4,0.2,0.7,0.4,1     c0.1,0.4,0.2,0.7,0.4,1.1s0.2,0.7,0.4,1.1s0.2,0.7,0.3,1.1c0.1,0.4,0.2,0.7,0.3,1.1c0.1,0.4,0.2,0.7,0.3,1.1     c0.1,0.4,0.2,0.7,0.3,1.1c0.1,0.4,0.2,0.7,0.3,1.1c0.1,0.4,0.2,0.7,0.3,1.1c0.1,0.4,0.2,0.7,0.3,1.1c0.1,0.4,0.2,0.7,0.3,1.1     c0.1,0.4,0.2,0.7,0.3,1.1s0.2,0.7,0.3,1.1c0.1,0.4,0.2,0.7,0.3,1.1s0.2,0.7,0.2,1.1c0.1,0.4,0.2,0.7,0.2,1.1s0.2,0.7,0.2,1.1     c0.1,0.4,0.2,0.7,0.2,1.1c0.1,0.4,0.2,0.7,0.2,1.1c0.1,0.4,0.1,0.7,0.2,1.1c0.1,0.4,0.1,0.7,0.2,1.1s0.1,0.7,0.2,1.1     c0.1,0.4,0.1,0.7,0.2,1.1c0.1,0.4,0.1,0.7,0.2,1.1c0,0.4,0.1,0.7,0.2,1.1c0,0.4,0.1,0.7,0.2,1.1c0,0.4,0.1,0.7,0.1,1.1     c0,0.4,0.1,0.7,0.1,1.1c0,0.4,0.1,0.7,0.1,1.1c0,0.4,0.1,0.7,0.1,1.1c0,0.4,0.1,0.7,0.1,1.1c0,0.4,0.1,0.7,0.1,1.1     s0.1,0.7,0.1,1.1c0,0.4,0,0.7,0.1,1.1c0,0.4,0,0.7,0.1,1.1s0,0.7,0,1.1c0,0.4,0,0.7,0,1.1c0,0.4,0,0.7,0,1.1s0,0.7,0,1.1     c0,0.4,0,0.7,0,1.1C577.2,221.9,577.2,222.3,577.2,222.7L577.2,222.7z"/>
		</g>
	</g>
</g>
</svg>