<svg xmlns="http://www.w3.org/2000/svg" fill="none" viewBox="0 0 71 25"><path fill="#fff" d="M22.4 16a1.6 1.6 0 0 1 1.6 1.6v4.8a1.6 1.6 0 0 1-1.6 1.6h-4.8a1.6 1.6 0 0 1-1.6-1.6v-4.8a1.6 1.6 0 0 1 1.6-1.6zM6.4 0A1.6 1.6 0 0 1 8 1.6v4.8A1.6 1.6 0 0 1 6.4 8H1.6A1.6 1.6 0 0 1 0 6.4V1.6A1.6 1.6 0 0 1 1.6 0zM23.531 8.469c.3-.3.469-.707.469-1.132V1.6A1.6 1.6 0 0 0 22.4 0h-4.8A1.6 1.6 0 0 0 16 1.6v4.8A1.6 1.6 0 0 1 14.4 8H8.663a1.6 1.6 0 0 0-1.132.469L.47 15.53A1.6 1.6 0 0 0 0 16.663V22.4A1.6 1.6 0 0 0 1.6 24h4.8A1.6 1.6 0 0 0 8 22.4v-4.8A1.6 1.6 0 0 1 9.6 16h5.737a1.6 1.6 0 0 0 1.132-.469zM31.22 20V3.8h3.62v7.1q.42-.72 1.18-1.12.78-.42 1.78-.42 1.74 0 2.64 1.12.92 1.1.92 3.24V20h-3.62v-5.6q0-1.82-1.38-1.82-.74 0-1.14.52-.38.5-.38 1.44V20zm16.6.32q-2.46 0-3.74-1.24-1.26-1.24-1.26-3.62V9.68h3.64v5.66q0 1.76 1.38 1.76.7 0 1.02-.42t.32-1.34V9.68h3.64v5.78q0 2.38-1.28 3.62-1.26 1.24-3.72 1.24m6.546-.32V3.8h3.62V20zm5.955 4.9 2.58-5.46-4.24-9.76h3.98l2.1 6.06 1.94-6.06h3.88l-6.6 15.22z"/></svg>