<svg version="1.1" id="Layer_1" xmlns="http://www.w3.org/2000/svg" xmlns:xlink="http://www.w3.org/1999/xlink" x="0px" y="0px" width="100%" viewBox="0 0 180 180" enable-background="new 0 0 180 180" xml:space="preserve">
  <path fill="#FEFEFE" opacity="1.000000" stroke="none" d=" M111.000000,181.000000 C74.000000,181.000000 37.500004,181.000000 1.000005,181.000000 C1.000003,121.000008 1.000003,61.000011 1.000002,1.000013 C60.999989,1.000009 120.999977,1.000009 180.999969,1.000004 C180.999985,60.999985 180.999985,120.999969 181.000000,180.999969 C157.833328,181.000000 134.666672,181.000000 111.000000,181.000000 M92.383194,23.019001 C81.313591,22.978577 81.347420,22.985394 79.133850,33.967770 C78.955315,34.853519 78.030640,35.938652 77.187553,36.284145 C71.550491,38.594177 65.841438,40.728523 60.079868,42.949146 C51.854774,36.325741 50.300980,36.060764 45.462185,40.534008 C35.819622,49.448120 35.819626,49.448124 43.224102,60.492462 C41.382980,64.713478 39.115070,68.685867 37.935665,72.958702 C36.732948,77.316010 35.234783,79.833847 30.057184,79.454468 C25.770687,79.140373 23.503710,82.094612 23.123014,86.367462 C22.170498,97.058365 23.448399,102.167702 28.351013,102.077286 C35.643330,101.942780 37.481285,106.068214 38.933784,111.529289 C38.983166,111.714943 39.436890,111.793068 40.802368,112.453255 C43.044167,109.879097 45.249161,106.642052 48.130058,104.203537 C52.509956,100.496193 54.125355,96.469872 53.950626,90.497017 C53.426945,72.595833 67.390541,56.483757 84.586967,54.011436 C104.170532,51.195923 121.810631,62.289631 127.042664,80.711487 C133.866669,104.738655 115.739006,128.447021 90.762108,128.272644 C88.059288,128.253754 84.679626,127.980476 82.777954,129.392670 C77.882332,133.028183 73.640266,137.543808 68.821976,141.999115 C70.466492,143.029861 70.972687,143.572098 71.558319,143.678986 C76.734505,144.623611 80.020096,146.547058 79.674500,152.950134 C79.451477,157.082016 83.111946,159.313339 87.371513,158.879456 C92.749634,158.331635 101.208298,161.697632 101.971764,153.709152 C102.722359,145.855438 106.998207,144.583542 112.480064,142.876846 C114.208542,142.338699 115.968300,141.598587 117.423370,140.548538 C120.332664,138.449066 122.307137,138.727737 125.134735,141.260239 C127.112488,143.031555 131.190781,144.421356 133.444077,143.586884 C144.141052,139.625412 146.261215,130.462555 138.985092,122.166840 C138.788422,121.942619 138.754318,121.575813 138.827591,121.776024 C140.987778,116.496361 143.289413,111.681892 144.889893,106.644653 C145.799866,103.780693 146.954834,102.739929 149.986267,102.681595 C156.969391,102.547234 158.883026,100.417870 158.972443,93.654068 C159.145615,80.552666 159.118896,80.521065 146.636948,78.797089 C144.032028,72.592224 141.475266,66.502083 138.827988,60.196339 C138.910278,60.044697 139.043243,59.482845 139.398239,59.192280 C146.726578,53.194103 145.816498,48.658714 138.725174,42.491474 C138.097733,41.945801 137.535004,41.326450 136.923462,40.761639 C132.204132,36.402893 129.404175,36.516243 124.469460,40.822025 C123.299767,41.842648 121.124886,42.989830 119.991692,42.558125 C114.297371,40.388798 108.795174,37.715183 103.089928,35.157913 C102.101974,24.233391 101.295547,23.213860 92.383194,23.019001 M117.068085,101.337982 C117.646690,96.274162 118.812340,91.188713 118.626854,86.153038 C118.464828,81.754181 115.007317,80.781288 111.666672,83.769424 C108.564766,86.544014 105.743721,89.632278 102.646210,92.412163 C98.519287,96.115883 93.187325,96.131935 89.592575,92.650833 C85.800652,88.978790 85.738319,83.501144 89.590172,79.245682 C92.160202,76.406357 95.071365,73.863434 97.508354,70.921532 C98.644897,69.549515 99.968910,67.175354 99.482567,65.928391 C98.952011,64.568085 96.507538,63.409248 94.753471,63.154884 C75.776215,60.402916 59.611244,77.614937 63.590363,96.427399 C64.295799,99.762573 63.735722,101.856697 61.316978,104.234566 C49.672939,115.681763 38.172298,127.276688 26.731220,138.927643 C21.533726,144.220474 21.828087,151.432770 27.139265,156.091965 C32.103416,160.446732 38.381413,159.921982 43.997818,154.388260 C55.510944,143.044617 66.852051,131.525391 78.450829,120.271019 C79.813171,118.949112 82.506157,117.969688 84.314713,118.299362 C98.749039,120.930519 110.081406,115.422195 117.068085,101.337982 z"/>
  <path fill="#1CA25B" opacity="1.000000" stroke="none" d=" M92.835266,23.022083 C101.295547,23.213860 102.101974,24.233391 103.089928,35.157913 C108.795174,37.715183 114.297371,40.388798 119.991692,42.558125 C121.124886,42.989830 123.299767,41.842648 124.469460,40.822025 C129.404175,36.516243 132.204132,36.402893 136.923462,40.761639 C137.535004,41.326450 138.097733,41.945801 138.725174,42.491474 C145.816498,48.658714 146.726578,53.194103 139.398239,59.192280 C139.043243,59.482845 138.910278,60.044697 138.827988,60.196339 C141.475266,66.502083 144.032028,72.592224 146.636948,78.797089 C159.118896,80.521065 159.145615,80.552666 158.972443,93.654068 C158.883026,100.417870 156.969391,102.547234 149.986267,102.681595 C146.954834,102.739929 145.799866,103.780693 144.889893,106.644653 C143.289413,111.681892 140.987778,116.496361 138.827591,121.776024 C138.754318,121.575813 138.788422,121.942619 138.985092,122.166840 C146.261215,130.462555 144.141052,139.625412 133.444077,143.586884 C131.190781,144.421356 127.112488,143.031555 125.134735,141.260239 C122.307137,138.727737 120.332664,138.449066 117.423370,140.548538 C115.968300,141.598587 114.208542,142.338699 112.480064,142.876846 C106.998207,144.583542 102.722359,145.855438 101.971764,153.709152 C101.208298,161.697632 92.749634,158.331635 87.371513,158.879456 C83.111946,159.313339 79.451477,157.082016 79.674500,152.950134 C80.020096,146.547058 76.734505,144.623611 71.558319,143.678986 C70.972687,143.572098 70.466492,143.029861 68.821976,141.999115 C73.640266,137.543808 77.882332,133.028183 82.777954,129.392670 C84.679626,127.980476 88.059288,128.253754 90.762108,128.272644 C115.739006,128.447021 133.866669,104.738655 127.042664,80.711487 C121.810631,62.289631 104.170532,51.195923 84.586967,54.011436 C67.390541,56.483757 53.426945,72.595833 53.950626,90.497017 C54.125355,96.469872 52.509956,100.496193 48.130058,104.203537 C45.249161,106.642052 43.044167,109.879097 40.802368,112.453255 C39.436890,111.793068 38.983166,111.714943 38.933784,111.529289 C37.481285,106.068214 35.643330,101.942780 28.351013,102.077286 C23.448399,102.167702 22.170498,97.058365 23.123014,86.367462 C23.503710,82.094612 25.770687,79.140373 30.057184,79.454468 C35.234783,79.833847 36.732948,77.316010 37.935665,72.958702 C39.115070,68.685867 41.382980,64.713478 43.224102,60.492462 C35.819626,49.448124 35.819622,49.448120 45.462185,40.534008 C50.300980,36.060764 51.854774,36.325741 60.079868,42.949146 C65.841438,40.728523 71.550491,38.594177 77.187553,36.284145 C78.030640,35.938652 78.955315,34.853519 79.133850,33.967770 C81.347420,22.985394 81.313591,22.978577 92.835266,23.022083  z"/>
  <path fill="#202020" opacity="1.000000" stroke="none" d=" M116.952621,101.710526 C110.081406,115.422195 98.749039,120.930519 84.314713,118.299362 C82.506157,117.969688 79.813171,118.949112 78.450829,120.271019 C66.852051,131.525391 55.510944,143.044617 43.997818,154.388260 C38.381413,159.921982 32.103416,160.446732 27.139265,156.091965 C21.828087,151.432770 21.533726,144.220474 26.731220,138.927643 C38.172298,127.276688 49.672939,115.681763 61.316978,104.234566 C63.735722,101.856697 64.295799,99.762573 63.590363,96.427399 C59.611244,77.614937 75.776215,60.402916 94.753471,63.154884 C96.507538,63.409248 98.952011,64.568085 99.482567,65.928391 C99.968910,67.175354 98.644897,69.549515 97.508354,70.921532 C95.071365,73.863434 92.160202,76.406357 89.590172,79.245682 C85.738319,83.501144 85.800652,88.978790 89.592575,92.650833 C93.187325,96.131935 98.519287,96.115883 102.646210,92.412163 C105.743721,89.632278 108.564766,86.544014 111.666672,83.769424 C115.007317,80.781288 118.464828,81.754181 118.626854,86.153038 C118.812340,91.188713 117.646690,96.274162 116.952621,101.710526 z"/>
</svg>
