<svg xmlns="http://www.w3.org/2000/svg" version="1.1" viewBox="0 0 1104.755 341.927">
  <path style="line-height:normal;text-indent:0;text-align:start;text-decoration-line:none;text-decoration-style:solid;text-decoration-color:#000;text-transform:none;white-space:normal;isolation:auto;mix-blend-mode:normal;solid-color:#000;solid-opacity:1" d="M67.526 0L31.57 50.642v28.626L.282 94.15 0 94.018v186.76l121.987 57.631 7.454 3.518 7.455-3.518 121.986-57.631V94.018l-.23.108-31.296-14.887V50.642l-1.095-1.54L191.398 0l-35.957 50.642v.05l-26.164-36.849-25.96 36.566-.929-1.307zm6.361 29.417l13.907 19.585H47.258l13.745-19.355zm123.87 0l13.91 19.585H171.13l13.742-19.355zm-62.119 13.845l13.907 19.584h-40.533l13.742-19.356zM43.414 58.873h19.225v64.737l-19.225-9.083zm29.096 0h19.13v78.435l-19.13-9.036zm94.778 0h19.224v69.332l-19.224 9.082zm29.093 0h19.128v55.632l-19.128 9.036zm-91.215 13.843h19.226v80.065l-19.226-9.084zm29.097 0h19.127v71.137l-19.127 9.038zm913.896 7.068l-.095 36.04-19.327-.132v14.685h19.383V207.8c0 5.639.44 10.869 1.332 15.689l.01.042.008.043c1.095 4.924 2.944 9.217 5.584 12.799 2.661 3.612 6.223 6.389 10.522 8.263 4.386 2.086 9.722 3.06 15.982 3.06 2.854 0 6.121-.465 9.866-1.356a89.636 89.636 0 0011.154-3.452l2.177-.83-4.697-14.083-2.463 1.137c-4.784 2.073-9.472 3.624-14.486 3.652-4.04 0-7.214-.58-9.54-1.582-2.218-1.2-3.933-2.706-5.235-4.575-1.36-2.125-2.358-4.568-2.99-7.377-.486-3.106-.74-6.567-.74-10.395v-78.459h35.921v-14.672h-35.92v-35.92zM227.352 93.992l16.927 6.921-16.927 7.996zm-195.782.026v14.915l-16.923-7.996zm793.193 18.581l.002.002v.002c-8.148 0-16.056 2.006-23.607 5.962l-.011.007-.011.005c-6.101 3.273-11.192 6.691-16.545 10.73l-.096-13.602h-15.907v184.97h16.223v-66.117c5.317 3.626 10.568 6.77 15.711 9.056l.026.011.027.013c6.452 2.688 12.808 4.06 19.023 4.06 7.563 0 14.812-1.538 21.663-4.603l.013-.005.014-.007c7.024-3.242 13.17-7.854 18.377-13.78l-.005.002c5.393-6.112 9.596-13.461 12.614-21.984 3.037-8.574 4.532-18.244 4.532-28.979 0-19.634-4.212-35.516-12.858-47.413l-.003-.005c-8.717-12.164-22.082-18.325-39.182-18.325zm-392.886.002v.002c-8.148 0-16.056 2.006-23.607 5.962l-.012.007-.01.005c-6.102 3.273-11.193 6.693-16.546 10.732l-.096-13.604H375.7v184.972h16.223V234.56c5.316 3.627 10.568 6.77 15.71 9.055l.026.013.027.012c6.453 2.689 12.809 4.061 19.023 4.061 7.563 0 14.813-1.539 21.664-4.604l.012-.007.015-.005c7.023-3.241 13.169-7.854 18.377-13.78l-.005.002c5.392-6.111 9.596-13.46 12.614-21.983 3.037-8.575 4.532-18.245 4.532-28.979 0-19.634-4.212-35.516-12.859-47.413l-.003-.005c-8.715-12.161-22.079-18.322-39.179-18.323zm264.145 0v.002c-9.008 0-17.174 2.28-24.284 6.83-5.805 3.574-11.43 8.127-16.943 13.29l.114-17.018h-15.583v128.893h16.227v-93.522c7.199-7.288 13.682-14.19 19.28-17.709l.02-.014.02-.013c5.648-3.712 11.848-5.545 18.823-5.545 9.657 0 15.884 2.851 19.695 8.492l.021.03.024.033c3.998 5.536 6.258 14.788 6.258 27.78v80.468h16.225v-82.02c0-16.496-3.023-29.01-9.556-37.41-6.545-8.415-16.935-12.566-30.341-12.566zm-133.406.002c-7.247 0-14.335 1.64-21.172 4.874l-.01.005c-6.686 3.074-12.726 7.593-18.086 13.489l-.002.002c-5.225 5.765-9.422 12.844-12.613 21.176l-.009.022-.007.021c-3.039 8.403-4.539 17.82-4.539 28.217 0 10.398 1.5 19.816 4.54 28.219l.008.029.013.029c3.196 8.167 7.484 15.242 12.868 21.164l.014.012.011.015c5.39 5.749 11.716 10.179 18.91 13.237l.01.003.011.003c7.36 3.051 15.188 4.577 23.412 4.577 9.348 0 17.159-1.305 23.439-4.07l.012-.008c6.107-2.617 11.706-5.416 16.797-8.4l2.007-1.175-7.062-13.337-2.27 1.681c-4.464 3.307-8.867 5.364-14.168 7.354-5.033 1.782-11.24 2.696-17.722 2.696-6.753 0-12.75-.64-18.082-3.058-5.386-2.615-10.005-6.104-13.919-10.497-3.748-4.572-6.704-9.97-8.855-16.256l-.002-.005c-1.908-5.728-2.911-11.932-3.262-18.49h89.45c0-2.53.243-4.958.252-7.08V172.4c0-18.635-4.323-33.399-13.235-43.947-8.894-10.527-21.378-15.849-36.74-15.849zm393.192 0c-7.728 0-15.14 1.536-22.158 4.595-7.021 3.06-13.251 7.489-18.632 13.228l-.013.015-.016.014c-5.234 5.775-9.43 12.947-12.62 21.452l-.005.012-.005.015c-3.04 8.407-4.537 17.91-4.537 28.475 0 10.566 1.496 20.07 4.537 28.478l.011.029.013.029c3.193 8.158 7.388 15.146 12.605 20.903l.015.013.014.016c5.38 5.74 11.61 10.166 18.63 13.226 7.019 3.06 14.434 4.595 22.161 4.595 7.728 0 15.141-1.536 22.16-4.595 7.186-3.057 13.427-7.488 18.644-13.24 5.401-5.765 9.61-12.773 12.635-20.95 3.22-8.416 4.807-17.931 4.807-28.504 0-10.568-1.586-20.079-4.804-28.491-3.02-8.514-7.225-15.7-12.64-21.48-5.216-5.75-11.457-10.183-18.642-13.24-7.018-3.059-14.43-4.595-22.158-4.595zm-940.9 4.946l107.079 50.585v153.784l-107.08-50.584zm229.065 0v153.785l-107.077 50.584V168.133zm318.898 9.728h.002c10.625 0 18.633 3.605 24.747 11.006l.005.01.007.012c5.681 6.728 8.777 17.307 9.114 31.668h-73.674c.77-6.08 2.05-11.662 4.053-16.53 2.485-5.623 5.521-10.366 9.096-14.27 3.756-3.914 7.863-6.802 12.36-8.73l.033-.016.033-.015c4.513-2.095 9.222-3.134 14.223-3.134zm-132.802.257v.002c6.747 0 12.344 1.31 16.916 3.833l.029.015.029.016c4.63 2.395 8.33 5.776 11.217 10.267l.013.018.011.016c2.901 4.353 5.037 9.65 6.363 15.95l.005.031.01.03c1.501 6.341 2.26 13.216 2.26 20.631 0 8.227-1.092 15.725-3.247 22.523l-.007.018-.005.018c-1.996 6.655-4.8 12.324-8.394 17.061-3.588 4.73-7.86 8.35-12.877 10.939-5 2.58-10.357 3.864-16.2 3.864-4.419 0-9.654-1.119-15.658-3.453-5.621-2.187-11.87-7.559-18.608-12.904v-68.657c7.146-6.09 13.812-11.868 19.893-15.069l.01-.003.01-.007c6.444-3.47 12.5-5.138 18.23-5.138zm392.886 0l.002.002c6.747 0 12.344 1.31 16.916 3.833l.029.015.029.016c4.63 2.395 8.33 5.776 11.217 10.267l.013.018.01.016c2.902 4.353 5.038 9.65 6.364 15.95l.005.031.01.03c1.502 6.341 2.26 13.216 2.26 20.631 0 8.227-1.091 15.725-3.247 22.523l-.009.018-.005.018c-1.997 6.655-4.8 12.324-8.394 17.061-3.588 4.73-7.86 8.35-12.877 10.939-5 2.58-10.357 3.864-16.2 3.864-4.419 0-9.654-1.119-15.658-3.453-5.621-2.187-11.87-7.559-18.608-12.904v-68.657c7.146-6.09 13.812-11.868 19.893-15.069l.01-.005.01-.005c6.444-3.47 12.5-5.138 18.23-5.138zm132.854 0v.002c5.843 0 11.2 1.285 16.2 3.866l.044.02.04.02c5.161 2.42 9.482 5.934 13.052 10.64l.027.037.028.035c3.754 4.57 6.719 10.065 8.877 16.541 2.146 6.436 3.235 13.664 3.235 21.715 0 7.873-1.087 15.014-3.235 21.455-2.158 6.477-5.123 11.97-8.877 16.54l-.016.021-.015.022c-3.572 4.546-7.92 8.087-13.118 10.689-5.005 2.42-10.383 3.628-16.243 3.628-5.853 0-11.226-1.207-16.227-3.621-5.027-2.6-9.393-6.154-13.15-10.723-3.586-4.571-6.471-10.074-8.632-16.556-2.147-6.442-3.236-13.582-3.236-21.456 0-8.05 1.09-15.278 3.236-21.714 2.163-6.49 5.051-11.998 8.643-16.572l.003-.003.003-.007c3.757-4.735 8.105-8.267 13.101-10.685l.03-.015.026-.012c5-2.581 10.36-3.866 16.202-3.866z" mask="none" color="#000" font-style="normal" font-variant="normal" font-weight="400" font-stretch="normal" font-size="medium" font-family="sans-serif" text-decoration="none" letter-spacing="normal" word-spacing="normal" writing-mode="lr-tb" direction="ltr" baseline-shift="baseline" text-anchor="start" clip-rule="nonzero" display="inline" overflow="visible" visibility="visible" opacity="1" color-interpolation="sRGB" color-interpolation-filters="linearRGB" fill="#fff" fill-opacity="1" fill-rule="nonzero" color-rendering="auto" image-rendering="auto" shape-rendering="auto" text-rendering="auto"/>
</svg>
