<svg width="275" height="299" viewBox="0 0 275 299" fill="none" xmlns="http://www.w3.org/2000/svg">
<g clip-path="url(#clip0)">
<path fill-rule="evenodd" clip-rule="evenodd" d="M0.825817 98.6789C-0.630183 98.6789 3.66681 95.9219 6.04881 95.3279C7.95681 94.8519 197.387 94.9129 199.613 95.3899C204.144 96.3619 206.151 99.6989 206.206 106.355C206.247 111.253 206.774 111.438 221.79 111.829C238.744 112.27 245.027 113.43 253.456 117.676C264.648 123.313 272.41 138.345 273.998 157.461C274.893 168.233 272.803 180.022 267.907 191.827C266.441 195.361 261.325 205.449 260.675 206.086C260.571 206.188 260.158 206.897 259.758 207.66C259.357 208.424 258.919 209.049 258.786 209.049C258.652 209.049 258.445 209.341 258.325 209.697C258.017 210.615 254.703 215.483 253.976 216.086C253.853 216.188 253.686 216.463 253.605 216.697C253.459 217.115 250.485 220.558 248.037 223.143C246.792 224.458 241.983 228.969 239.555 231.102C237.407 232.987 232.675 236.457 232.251 236.457C232.031 236.457 231.796 236.593 231.728 236.76C231.184 238.098 210.335 249.79 208.494 249.79C208.269 249.79 208.086 249.923 208.086 250.086C208.086 250.403 205.494 251.472 205.031 251.347C204.878 251.305 204.753 251.412 204.753 251.583C204.753 251.754 204.044 252.12 203.179 252.397C202.313 252.675 200.56 253.362 199.282 253.926C198.005 254.49 196.172 255.191 195.208 255.485C194.245 255.778 192.831 256.286 192.068 256.613C191.304 256.94 190.679 257.101 190.679 256.972C190.679 256.842 190.47 256.909 190.216 257.119C189.815 257.45 186.362 258.473 184.24 258.889C183.856 258.964 183.512 259.073 183.476 259.13C183.44 259.188 182.287 261.484 180.914 264.234C177.767 270.54 175.854 274.014 175.443 274.173C175.267 274.241 175.123 274.497 175.123 274.742C175.123 274.988 174.63 275.765 174.027 276.471C173.424 277.176 172.924 277.929 172.916 278.144C172.908 278.358 172.318 279.171 171.605 279.949C170.892 280.728 170.308 281.486 170.308 281.634C170.308 283.63 161.091 290.166 155.308 292.27C153.884 292.789 153.379 292.935 151.814 293.283C151.42 293.37 150.76 293.623 150.347 293.843C149.935 294.064 149.466 294.216 149.305 294.181C149.144 294.146 148.762 294.208 148.456 294.319C140.918 297.055 128.182 298.123 103.086 298.123C82.4178 298.123 77.5718 297.946 71.4188 296.966C70.5028 296.82 69.6428 296.724 69.5088 296.752C68.7468 296.915 59.4448 294.953 56.5728 294.024C55.6388 293.722 54.5558 293.411 54.1658 293.332C52.8628 293.071 49.7958 291.938 48.4758 291.23C47.7578 290.846 46.8888 290.531 46.5438 290.531C46.1988 290.531 45.6968 290.315 45.4268 290.052C45.1578 289.789 44.4008 289.354 43.7438 289.085C40.9838 287.957 28.4778 273.892 30.2038 273.858C30.3628 273.855 30.3128 273.73 30.0908 273.581C29.0638 272.885 21.8208 258.669 22.0748 257.846C22.1218 257.693 21.9658 257.568 21.7278 257.568C21.4898 257.568 21.3938 257.47 21.5128 257.351C21.6318 257.231 21.2508 256.065 20.6638 254.758C20.0778 253.452 19.6788 252.383 19.7768 252.383C19.8748 252.383 19.7138 252.008 19.4198 251.549C19.1258 251.091 18.8308 250.383 18.7638 249.975C18.6968 249.568 18.5208 249.144 18.3728 249.033C18.2258 248.923 18.0538 248.506 17.9918 248.107C17.9298 247.709 17.7818 247.216 17.6638 247.012C17.5448 246.809 17.3318 246.142 17.1898 245.531C17.0478 244.92 16.5038 243.339 15.9808 242.019C15.4578 240.698 15.0308 239.24 15.0308 238.778C15.0308 238.316 14.9038 237.938 14.7488 237.938C14.5928 237.938 14.3578 237.397 14.2258 236.734C14.0928 236.072 13.8868 235.031 13.7668 234.42C13.6468 233.809 13.4038 233.127 13.2278 232.904C13.0518 232.682 12.8338 231.932 12.7438 231.238C12.6538 230.543 12.5478 229.934 12.5088 229.883C12.4698 229.832 12.4028 229.665 12.3598 229.512C12.3168 229.359 12.1768 228.984 12.0488 228.679C11.7418 227.943 10.0388 221.019 9.81882 219.605C9.56582 217.984 9.18482 216.4 8.79382 215.346C8.44282 214.397 6.73482 205.39 6.05482 200.901C5.97782 200.392 5.88382 199.892 5.84682 199.79C5.80882 199.688 5.75081 199.438 5.71781 199.234C5.68481 199.031 5.54382 198.364 5.40482 197.753C5.06982 196.281 4.73782 194.042 4.56682 192.107C4.49082 191.242 4.34882 190.405 4.25082 190.248C4.15382 190.09 3.95782 188.798 3.81682 187.376C3.49682 184.173 3.43582 183.66 2.93182 179.958C2.70882 178.319 2.53382 176.569 2.54282 176.069C2.55182 175.569 2.46882 174.244 2.35782 173.123C2.16182 171.136 1.96681 166.795 1.60181 156.272C0.996814 138.854 0.699815 130.901 0.460815 125.716C-0.162185 112.164 -0.152185 99.9329 0.482815 99.2979C0.822815 98.9579 0.977817 98.6789 0.825817 98.6789ZM85.7308 137.383C85.9638 137.586 86.8588 138.336 87.7198 139.049C88.5808 139.762 89.5568 140.605 89.8898 140.922C91.8098 142.755 106.6 152.383 106.6 152.383L106.978 152.66C106.978 152.66 108.105 153.522 109.478 154.234C110.851 154.947 112.058 155.628 112.16 155.748C112.262 155.867 113.331 156.591 114.536 157.356C115.74 158.121 116.963 158.984 117.253 159.274C117.543 159.564 118.348 160.234 119.042 160.764C123.56 164.21 131.961 176.328 132.506 179.132C133.676 181.828 133.461 181.328 133.676 182.94C133.961 184.328 134.141 184.728 134.372 186.458C134.604 188.189 134.874 190.022 134.974 190.531C135.336 192.385 135.114 199.951 134.61 202.938C134.182 205.47 133.954 206.972 133.831 208.054C133.766 208.627 133.537 209.544 133.324 210.091C133.11 210.638 132.731 211.836 132.481 212.753L132.422 212.968C132.084 214.209 131.991 214.547 131.874 214.875C131.825 215.012 131.771 215.147 131.694 215.346C130.844 217.518 129.87 220.434 129.845 220.878C129.828 221.171 129.186 222.612 128.417 224.08C127.649 225.547 127.244 226.973 127.244 226.973L126.961 227.828C126.961 227.828 126.461 229.328 125.461 230.828C124.461 232.328 124.294 232.277 123.734 233.134L122.716 234.692L122.482 233.63C122.353 233.046 122.228 231.568 122.204 230.346C121.967 218.331 115.097 196.995 107.604 185C102.539 176.892 89.1098 161.618 90.5668 165.623C90.8838 166.493 92.9608 169.328 93.3418 169.728C93.6418 170.157 93.3418 169.728 93.6418 170.157C94 170.5 94.8498 172.436 96.3268 174.849C97.8038 177.262 99.4988 180.153 100.094 181.273C100.689 182.392 101.272 183.392 101.39 183.494C101.655 183.722 103.677 187.418 105.038 190.16C105.594 191.281 106.461 192.828 106.461 192.828C106.461 192.828 106.884 194.045 107.664 195.623C109.526 199.392 111.049 202.661 111.049 202.889C111.049 202.989 111.584 204.208 112.237 205.598C112.891 206.987 113.434 208.207 113.444 208.309C113.496 208.816 114.993 211.828 115.172 212.549C115.324 213.162 115.461 213.828 115.461 213.828L115.961 215.328C115.961 215.328 116.102 215.971 116.386 216.734C116.978 218.326 117.234 219.114 117.291 219.516C117.313 219.671 117.588 220.296 117.903 220.905C118.297 222.012 117.903 220.905 118.297 222.012C118.461 222.328 118.364 222.707 118.664 223.557C118.964 224.406 119.298 225.615 119.408 226.242C119.517 226.869 120.031 229.049 120.549 231.086C120.635 231.424 120.716 231.74 120.792 232.036C121.486 234.741 121.747 235.762 121.391 236.073C121.174 236.262 120.73 236.189 120.016 236.072C119.887 236.051 119.749 236.029 119.602 236.006C96.5308 232.441 79.2518 222.249 71.1118 207.403C62.5028 191.7 62.4358 174.19 70.9138 155.716C71.8018 153.781 72.6958 151.947 72.9008 151.642C73.1048 151.336 73.4398 150.699 73.6438 150.225C73.8478 149.751 74.2518 149.127 74.5408 148.838C74.8298 148.549 75.6138 147.353 76.2828 146.181C76.9518 145.008 77.8148 143.716 78.2018 143.309C78.5878 142.901 79.1788 142.153 79.5138 141.646C81.8798 138.066 84.4778 136.285 85.7308 137.383ZM254.315 141.421C251.117 135.967 245.217 131.004 239.382 128.858C238.448 128.514 231.845 127.266 231.705 127.406C231.647 127.463 230.446 127.552 229.036 127.603C225.347 127.737 222.171 128.558 217.994 130.458C216.619 131.084 215.494 131.39 215.494 131.39C215.494 131.39 214.91 131.629 214.197 132.172L212.901 132.961L212.253 133.292C210.997 134.321 206.902 137.387 206.294 137.753C205.002 138.531 204.879 139.27 204.575 148.123C204.463 151.383 204.293 155.716 204.197 157.753C204.101 159.79 203.932 163.54 203.82 166.086C203.61 170.897 202.999 178.922 202.722 180.531C202.634 181.04 202.459 182.54 202.333 183.864C202.009 187.274 200.81 195.522 199.91 200.531C198.44 208.714 198.061 210.727 197.715 212.197C197.522 213.012 196.604 216.825 195.673 220.67C194.743 224.515 194.086 227.765 194.214 227.892C194.897 228.571 204.623 228.081 207.345 227.231C212.528 225.612 220.572 221.668 223.035 219.536C223.471 219.16 224.494 218.355 225.308 217.749C226.123 217.142 226.923 216.437 227.086 216.181C227.249 215.925 227.54 215.716 227.734 215.716C228.161 215.716 234.22 209.716 236.897 206.642C239.112 204.098 239.627 203.466 241.419 201.088C242.132 200.143 243.152 198.839 243.685 198.191C244.219 197.543 245.21 196.096 245.889 194.975C246.568 193.855 247.298 192.816 247.512 192.666C247.726 192.516 247.781 192.391 247.635 192.388C247.308 192.381 249.943 187.802 250.374 187.629C250.544 187.56 250.589 187.352 250.474 187.166C250.359 186.98 250.441 186.827 250.657 186.827C250.873 186.827 251.012 186.702 250.968 186.549C250.923 186.397 251.405 185.188 252.038 183.864C253.266 181.297 253.976 179.654 254.757 177.568C255.023 176.855 255.382 176.113 255.553 175.92C255.724 175.726 255.864 175.184 255.864 174.716C255.864 174.247 256.01 173.864 256.188 173.864C256.366 173.864 256.513 173.489 256.513 173.031C256.514 172.572 256.861 171.031 257.285 169.605C258.834 164.384 259.358 154.021 258.234 150.809C257.967 150.045 257.819 149.42 257.905 149.42C258.211 149.42 255.618 143.643 254.315 141.421Z" fill="#D7F64C"/>
<path d="M110.138 1.5495C110.969 0.959495 111.886 0.383497 112.175 0.268497C113.545 -0.272503 113.55 -0.344504 111.959 3.4995C107.978 13.1155 108.197 17.1405 113.281 27.8085C120.419 42.7865 119.954 51.8815 111.6 60.6645C109.595 62.7725 105.078 65.6505 105.078 65.6505L104.738 65.8855L104.09 66.4305C103.733 66.5495 103.192 66.7905 102.886 66.9655C99.4614 68.9255 97.9724 69.1995 99.7634 67.5395C100.28 67.0605 100.481 66.6695 100.481 66.6695C100.481 66.6695 100.684 66.2445 101.203 65.7265C101.721 65.2075 102.145 64.6375 102.145 64.4585C102.145 64.4585 102.577 63.6205 103.104 62.9935C103.632 62.3675 103.808 61.8545 103.808 61.8545C103.808 61.8545 103.873 61.3125 104.263 60.6505C104.654 59.9885 105.207 58.6555 105.492 57.6875C105.777 56.7205 106.208 55.9285 106.208 55.9285C106.208 55.9285 106.434 55.5535 106.47 55.0955C106.505 54.6365 106.621 53.6785 106.726 52.9655C107.032 50.9045 107.059 46.6165 106.778 45.0155C106.287 42.2285 105.13 38.1215 104.346 36.3795C103.913 35.4185 103.523 34.4655 103.479 34.2615C103.435 34.0585 103.061 33.2245 102.648 32.4095C101.811 30.7585 100.642 27.7145 99.8744 25.1875C99.2254 23.0505 99.5 15.5 99.8584 14.5305L100 14C100 14 100.128 13.2645 100.455 12.7645C100.783 12.2635 100.846 11.8545 100.846 11.8545C100.846 11.8545 105.161 4.9145 107.292 3.5055C108.026 3.0195 109.307 2.1395 110.138 1.5495Z" fill="#D7F64C"/>
<path d="M145.138 20.5495C145.969 19.9595 146.886 19.3835 147.175 19.2685C148.545 18.7275 148.55 18.6555 146.959 22.4995C142.978 32.1155 143.197 36.1405 148.281 46.8085C155.419 61.7865 154.954 70.8815 146.6 79.6645C144.595 81.7725 140.078 84.6505 140.078 84.6505L139.738 84.8855L139.09 85.4305C138.733 85.5495 138.192 85.7905 137.886 85.9655C134.461 87.9255 132.972 88.1995 134.763 86.5395C135.28 86.0605 135.481 85.6695 135.481 85.6695C135.481 85.6695 135.684 85.2445 136.203 84.7265C136.721 84.2075 137.145 83.6375 137.145 83.4585C137.145 83.4585 137.577 82.6205 138.104 81.9935C138.632 81.3675 138.808 80.8545 138.808 80.8545C138.808 80.8545 138.873 80.3125 139.263 79.6505C139.654 78.9885 140.207 77.6555 140.492 76.6875C140.777 75.7205 141.208 74.9285 141.208 74.9285C141.208 74.9285 141.434 74.5535 141.47 74.0955C141.505 73.6365 141.621 72.6785 141.726 71.9655C142.032 69.9045 142.059 65.6165 141.778 64.0155C141.287 61.2285 140.13 57.1215 139.346 55.3795C138.913 54.4185 138.523 53.4655 138.479 53.2615C138.435 53.0585 138.061 52.2245 137.648 51.4095C136.811 49.7585 135.642 46.7145 134.874 44.1875C134.225 42.0505 134.5 34.5 134.858 33.5305L135 33C135 33 135.128 32.2645 135.455 31.7645C135.783 31.2635 135.846 30.8545 135.846 30.8545C135.846 30.8545 140.161 23.9145 142.292 22.5055C143.026 22.0195 144.307 21.1395 145.138 20.5495Z" fill="#D7F64C"/>
<path d="M71.1384 12.5495C71.9694 11.9595 72.8864 11.3835 73.1754 11.2685C74.5454 10.7275 74.5504 10.6555 72.9594 14.4995C68.9784 24.1155 69.1974 28.1405 74.2814 38.8085C81.4194 53.7865 80.9544 62.8815 72.6004 71.6645C70.5954 73.7725 66.0784 76.6505 66.0784 76.6505L65.7384 76.8855L65.0904 77.4305C64.7334 77.5495 64.1924 77.7905 63.8864 77.9655C60.4614 79.9255 58.9724 80.1995 60.7634 78.5395C61.2804 78.0605 61.4814 77.6695 61.4814 77.6695C61.4814 77.6695 61.6844 77.2445 62.2034 76.7265C62.7214 76.2075 63.1454 75.6375 63.1454 75.4585C63.1454 75.4585 63.5774 74.6205 64.1044 73.9935C64.6324 73.3675 64.8084 72.8545 64.8084 72.8545C64.8084 72.8545 64.8734 72.3125 65.2634 71.6505C65.6544 70.9885 66.2074 69.6555 66.4924 68.6875C66.7774 67.7205 67.2084 66.9285 67.2084 66.9285C67.2084 66.9285 67.4344 66.5535 67.4704 66.0955C67.5054 65.6365 67.6214 64.6785 67.7264 63.9655C68.0324 61.9045 68.0594 57.6165 67.7784 56.0155C67.2874 53.2285 66.1304 49.1215 65.3464 47.3795C64.9134 46.4185 64.5234 45.4655 64.4794 45.2615C64.4354 45.0585 64.0614 44.2245 63.6484 43.4095C62.8114 41.7585 61.6424 38.7145 60.8744 36.1875C60.2254 34.0505 60.5 26.5 60.8584 25.5305L61 25C61 25 61.1284 24.2645 61.4554 23.7645C61.7834 23.2635 61.8464 22.8545 61.8464 22.8545C61.8464 22.8545 66.1614 15.9145 68.2924 14.5055C69.0264 14.0195 70.3074 13.1395 71.1384 12.5495Z" fill="#D7F64C"/>
</g>
<defs>
<clipPath id="clip0">
<rect width="274.2" height="298.12" fill="white"/>
</clipPath>
</defs>
</svg>
