<svg width="133" height="29" viewBox="0 0 133 29" fill="none" xmlns="http://www.w3.org/2000/svg">
<path d="M19.6549 0.813159L5.60602 3.90952C4.18136 4.22245 3.16846 5.48241 3.16846 6.94V24.7853C3.16846 26.0534 4.11548 27.1158 5.3672 27.264L12.7375 28.2275L19.2286 21.765L25.8147 15.0185L25.6994 4.80714C25.683 3.56365 24.5301 2.64133 23.3195 2.90485L21.689 3.25896L21.6972 2.48486C21.7137 1.39784 20.709 0.582579 19.6549 0.813159Z" fill="#C02223"/>
<path d="M21.7056 3.25894V19.4489L25.8313 15.0103L25.716 4.46125C25.7078 3.3907 24.7113 2.60014 23.6655 2.83072L21.7056 3.25894Z" fill="#882425"/>
<path d="M12.7388 28.2273L23.7703 25.3515L25.8315 15.01L12.7388 28.2273Z" fill="url(#paint0_linear_48_205)"/>
<path d="M16.0233 12.1692C16.0233 12.1692 14.7633 10.5304 13.8328 10.0857C13.2398 9.80574 12.3587 9.69869 11.667 10.0446C10.6458 10.5551 10.5388 11.988 11.4776 12.5562C11.6999 12.6962 11.9964 12.8115 12.3834 12.9021C14.4586 13.3797 17.8844 14.3679 17.4644 18.3454C17.4644 18.3454 17.2256 22.0759 13.2975 22.5041C12.6057 22.5782 11.9058 22.5288 11.2305 22.3724C10.2999 22.1665 8.65295 21.7465 7.84592 21.2442L7.69769 16.9867H8.09297C8.09297 16.9867 8.87529 18.8807 11.0987 19.7948C11.5105 19.9595 11.9634 20.0254 12.3999 19.9595C12.9516 19.8771 13.6022 19.5807 13.8657 18.6831C13.8657 18.6831 14.3104 17.3737 12.0046 16.6573C10.16 16.0808 8.42237 15.4879 7.70592 13.5444C7.36829 12.6221 7.31064 11.601 7.54122 10.621C7.84592 9.34458 8.71883 7.54935 11.1893 6.77526C11.1893 6.77526 14.4339 5.89412 16.6574 7.08819L16.5586 12.1692H16.0233Z" fill="url(#paint1_linear_48_205)"/>
<path d="M46.12 20.752C42.862 20.752 40.576 19.06 40.432 16.162H42.484C42.628 17.89 43.654 19.06 46.066 19.06C48.136 19.06 48.766 18.16 48.766 16.99C48.766 15.352 47.506 15.118 45.166 14.524C43.15 13.984 40.936 13.336 40.936 10.888C40.936 8.656 42.664 7.378 45.436 7.378C48.37 7.378 50.278 8.872 50.476 11.464H48.424C48.208 9.916 47.326 9.07 45.454 9.07C43.834 9.07 43.006 9.664 43.006 10.78C43.006 12.22 44.356 12.526 46.012 12.94C48.496 13.57 50.836 14.164 50.836 16.882C50.836 19.096 49.342 20.752 46.12 20.752ZM55.624 19.15C55.93 19.15 56.074 19.132 56.38 19.078V20.5C55.93 20.59 55.642 20.608 55.264 20.608C53.752 20.608 52.834 20.032 52.834 17.908V12.778H51.502V11.32H52.834V8.368H54.598V11.32H56.362V12.778H54.598V17.962C54.598 18.934 54.868 19.15 55.624 19.15ZM59.7198 9.682H57.7218V7.774H59.7198V9.682ZM59.5938 20.5H57.8298V11.32H59.5938V20.5ZM65.84 11.104C66.164 11.104 66.416 11.122 66.686 11.158V12.85C66.47 12.814 66.308 12.796 66.092 12.796C64.49 12.796 63.338 14.002 63.338 15.748V20.5H61.574V11.32H63.338V13.066H63.374C63.86 11.914 64.598 11.104 65.84 11.104ZM69.5958 20.5H67.8318V7.63H69.5958V20.5ZM73.4659 9.682H71.4679V7.774H73.4659V9.682ZM73.3399 20.5H71.5759V11.32H73.3399V20.5ZM80.1441 11.05C81.8361 11.05 83.2041 12.022 83.2041 14.128V20.5H81.4401V14.614C81.4401 13.39 80.9001 12.562 79.5681 12.562C78.0561 12.562 77.0841 13.48 77.0841 14.866V20.5H75.3201V11.32H77.0841V12.472H77.1201C77.6061 11.77 78.5601 11.05 80.1441 11.05ZM91.5911 12.4V11.32H93.3551V19.78C93.3551 22.552 91.6811 23.794 89.0531 23.794C86.4251 23.794 85.1111 22.534 84.9311 20.878H86.7671C86.9471 21.706 87.5591 22.354 89.0531 22.354C90.7271 22.354 91.5911 21.616 91.5911 19.888V18.646H91.5551C91.0511 19.384 90.2051 20.032 88.7291 20.032C86.4431 20.032 84.6791 18.484 84.6791 15.55C84.6791 12.598 86.4431 11.05 88.7291 11.05C90.2051 11.05 91.0511 11.752 91.5551 12.4H91.5911ZM89.0531 18.574C90.6371 18.574 91.5731 17.548 91.5731 15.55C91.5731 13.534 90.6371 12.526 89.0531 12.526C87.3251 12.526 86.5151 13.822 86.5151 15.55C86.5151 17.278 87.3251 18.574 89.0531 18.574ZM101.354 20.5H99.3737V7.63H104.738C107.168 7.63 108.95 8.764 108.95 11.464C108.95 14.164 107.168 15.28 104.738 15.28H101.354V20.5ZM101.354 13.57H104.648C106.142 13.57 106.898 12.904 106.898 11.464C106.898 10.006 106.142 9.34 104.648 9.34H101.354V13.57ZM115.538 20.5H110.606V7.63H115.502C119.066 7.63 121.226 9.934 121.226 14.074C121.226 18.214 119.102 20.5 115.538 20.5ZM112.586 18.79H115.412C118.4 18.79 119.174 16.558 119.174 14.074C119.174 11.59 118.4 9.34 115.412 9.34H112.586V18.79ZM125.172 20.5H123.192V7.63H132.12V9.34H125.172V13.21H130.788V14.92H125.172V20.5Z" fill="#E9EBFC"/>
<defs>
<linearGradient id="paint0_linear_48_205" x1="18.4933" y1="28.2529" x2="19.4437" y2="20.2888" gradientUnits="userSpaceOnUse">
<stop stop-color="#DCF1F3"/>
<stop offset="1" stop-color="#C2C2C9"/>
</linearGradient>
<linearGradient id="paint1_linear_48_205" x1="11.7892" y1="24.1145" x2="13.2989" y2="2.85186" gradientUnits="userSpaceOnUse">
<stop stop-color="#DCF1F3"/>
<stop offset="1" stop-color="#C2C2C9"/>
</linearGradient>
</defs>
</svg>
