<svg width="276" height="280" viewBox="0 0 276 280" fill="none" xmlns="http://www.w3.org/2000/svg">
  <g clip-path="url(#a)">
    <mask id="b" style="mask-type:luminance" maskUnits="userSpaceOnUse" x="-21" y="-21" width="322" height="322">
      <path d="M-18.7-18.7h317.883v317.883H-18.699z" fill="#fff" stroke="#fff" stroke-width="2.671"/>
      <path d="M146.92 33.39a6.678 6.678 0 1 1-13.357 0 6.678 6.678 0 0 1 13.357 0Zm97.007 80.184a6.678 6.678 0 1 1-4.127-12.702 6.678 6.678 0 1 1 4.127 12.702Zm-46.282 117.038a6.678 6.678 0 1 1 10.805-7.851 6.678 6.678 0 1 1-10.805 7.851Zm-125.612-7.851a6.678 6.678 0 1 1 10.806 7.851 6.678 6.678 0 0 1-10.806-7.851ZM40.684 100.872a6.678 6.678 0 1 1-4.127 12.702 6.678 6.678 0 1 1 4.127-12.702Z" fill="#000" stroke="#fff" stroke-width="2.671"/>
    </mask>
    <g mask="url(#b)" stroke="#fff">
      <path d="m56.974 49.917 70.778 198.18h24.981l70.778-198.18H197.42l-44.687 127.124q-4.441 12.213-7.495 23.038-3.052 10.546-4.996 20.262-1.942-9.715-4.996-20.54-3.052-10.825-7.494-23.315L83.342 49.917z" fill="#fff" stroke-width="12.052"/>
      <path d="M140.242 255.107c-63.438 0-114.865-51.427-114.865-114.865S76.804 25.377 140.242 25.377c63.439 0 114.865 51.427 114.865 114.865s-51.426 114.865-114.865 114.865Z" stroke-width="24.042"/>
      <path d="M17.363 132.228v16.028l-13.356-8.014zm.798 24.127 3.127 15.719-14.663-5.254zm5.489 23.507 6.133 14.808-15.407-2.293zm9.97 21.985 8.905 13.326-15.558.757zm14.067 19.617 11.333 11.333-15.111 3.778zM65.31 237.96l13.327 8.904-14.084 6.654zm20.505 12.741 14.807 6.133-12.515 9.273zm22.595 8.496 15.72 3.126-10.466 11.537zm23.819 3.924h16.027l-8.014 13.357zm24.125-.798 15.72-3.126-5.254 14.663zm23.508-5.489 14.808-6.133-2.293 15.406zm21.985-9.969 13.326-8.905.757 15.558zm19.617-14.068 11.333-11.333 3.778 15.111zm16.496-17.624 8.904-13.326 6.654 14.083zm12.741-20.503 6.134-14.808 9.273 12.515zm8.495-22.596 3.127-15.719 11.536 10.465zm3.925-23.818v-16.028l13.357 8.014zm-.798-24.127-3.127-15.719 14.664 5.254zm-5.489-23.507L250.7 85.814l15.407 2.293zm-9.97-21.985-8.904-13.326 15.557-.757zM232.797 59.02l-11.333-11.333 15.111-3.778zm-17.624-16.496-13.327-8.904 14.084-6.654zM194.67 29.783l-14.808-6.133 12.515-9.273zm-22.596-8.495-15.72-3.127L166.82 6.624zm-23.818-3.925h-16.028l8.014-13.356zm-24.126.797-15.72 3.128 5.254-14.664zm-23.508 5.49-14.808 6.133 2.293-15.406zm-21.984 9.97L65.31 42.524l-.757-15.558zM59.02 47.687 47.688 59.02 43.91 43.91zM42.524 65.31 33.62 78.638l-6.653-14.083zM29.783 85.814l-6.133 14.808-9.273-12.515zm-8.496 22.596-3.127 15.719-11.536-10.465z" fill="#fff" stroke-width="8.014" stroke-linejoin="round"/>
      <path d="M121.543 28.048h37.398l-18.699 18.7zm-93.781 95.308 11.556-35.568 12.006 23.562zM89.425 242l-30.256-21.982 26.119-4.137zm131.891-21.982L191.061 242l4.136-26.119zm19.851-132.23 11.557 35.568-23.562-12.006z" fill="#fff" stroke-width="16.028" stroke-linejoin="round"/>
    </g>
  </g>
  <defs>
    <clipPath id="a">
      <path fill="#fff" d="M0 0h276v280H0z"/>
    </clipPath>
  </defs>
</svg>
