<svg width="2647" height="500" viewBox="0 0 2647 500" fill="none" xmlns="http://www.w3.org/2000/svg">
<g clip-path="url(#clip0_14_2)">
<path d="M729.213 166.336C731.437 160.415 734.694 156.68 738.945 155.209C743.195 153.739 748.041 152.984 753.403 152.984C758.766 152.984 763.731 153.819 768.299 155.488C772.827 157.156 776.124 160.852 778.19 166.614L842.142 334.34C843.611 338.234 843.055 341.453 840.473 343.956C837.892 346.46 833.8 347.731 828.239 347.731C823.234 347.731 819.024 346.936 815.568 345.347C812.152 343.757 809.848 341.413 808.736 338.274L794.277 299.889H712.252L698.071 338.274C696.959 341.413 694.694 343.797 691.239 345.347C687.823 346.936 683.493 347.731 678.289 347.731C672.728 347.731 668.637 346.499 666.055 343.956C663.473 341.453 662.917 338.274 664.387 334.34L729.173 166.336H729.213ZM784.267 272.034L753.681 189.979L722.818 272.034H784.267Z" fill="#1E1C39"/>
<path d="M1074.55 336.843C1074.55 344.075 1069.35 347.691 1058.98 347.691C1048.62 347.691 1043.69 344.075 1043.69 336.843V264.245C1043.69 252.762 1041.07 244.775 1035.75 240.324C1030.46 235.874 1024.11 233.649 1016.68 233.649C1010.92 233.649 1005.95 234.96 1001.78 237.543C997.613 240.126 994.197 243.702 991.496 248.232C988.795 252.762 986.848 258.245 985.657 264.643C984.465 271.04 983.829 278.113 983.829 285.941V336.843C983.829 344.075 978.626 347.691 968.259 347.691C957.891 347.691 952.966 344.075 952.966 336.843V264.245C952.966 252.762 950.344 244.775 945.021 240.324C939.738 235.874 933.383 233.649 925.955 233.649C920.195 233.649 915.23 234.96 911.059 237.543C906.888 240.126 903.472 243.702 900.771 248.232C898.07 252.762 896.124 258.245 894.932 264.643C893.74 271.04 893.105 278.113 893.105 285.941V336.843C893.105 344.075 887.901 347.691 877.534 347.691C867.167 347.691 862.241 344.075 862.241 336.843V219.463C862.241 215.37 863.353 212.31 865.578 210.284C867.802 208.257 871.417 207.224 876.422 207.224C880.672 207.224 883.969 208.257 886.273 210.284C888.577 212.31 890.205 215.29 891.119 219.185L892.231 231.423C896.481 223.834 902.241 217.873 909.47 213.622C916.7 209.37 925.955 207.224 937.276 207.224C948.596 207.224 957.057 209.529 964.405 214.178C971.714 218.827 976.958 226.218 980.135 236.43C984.386 227.331 990.344 220.218 997.931 215.012C1005.52 209.807 1015.53 207.224 1027.96 207.224C1042.62 207.224 1054.06 211.595 1062.32 220.297C1070.58 228.999 1074.59 243.106 1074.43 262.577V336.843H1074.55Z" fill="#1E1C39"/>
<path d="M1130.44 285.107C1131.36 296.432 1134.81 305.651 1140.73 312.803C1146.65 319.956 1155.67 323.492 1167.7 323.492C1174.37 323.492 1180.29 322.181 1185.5 319.598C1190.7 317.015 1194.87 312.843 1198.01 307.081C1199.48 305.054 1201.62 303.425 1204.4 302.233C1207.19 301.041 1211 300.405 1215.8 300.405C1220.61 300.405 1224.46 301.558 1226.77 303.862C1229.07 306.167 1229.51 309.386 1228.04 313.479C1223.59 325.36 1216 334.022 1205.24 339.506C1194.47 344.989 1181.88 347.731 1167.42 347.731C1157.41 347.731 1148.2 346.34 1139.74 343.559C1131.32 340.777 1123.97 336.525 1117.77 330.764C1111.57 325.002 1106.73 317.73 1103.31 308.909C1099.9 300.087 1098.19 289.677 1098.19 277.597C1098.19 265.517 1099.94 255.066 1103.47 246.165C1107.01 237.265 1111.81 229.953 1117.93 224.191C1124.05 218.43 1131.32 214.178 1139.74 211.396C1148.16 208.615 1157.41 207.224 1167.42 207.224C1176.52 207.224 1184.98 208.456 1192.89 210.959C1200.75 213.463 1207.7 217.118 1213.74 221.966C1219.78 226.774 1224.54 232.735 1228.08 239.768C1231.61 246.801 1233.56 254.987 1233.92 264.245V272.59C1233.92 276.285 1232.65 279.305 1230.18 281.65C1227.68 283.955 1224.58 285.107 1220.85 285.107H1130.48H1130.44ZM1201.62 263.967C1201.62 253.596 1198.33 245.609 1191.77 240.046C1185.18 234.483 1176.88 231.702 1166.87 231.702C1156.1 231.702 1147.88 234.682 1142.12 240.602C1136.36 246.523 1132.75 254.311 1131.28 263.967H1201.62Z" fill="#1E1C39"/>
<path d="M1332.86 238.934C1327.3 238.377 1321.86 238.973 1316.58 240.761C1311.3 242.51 1306.57 245.212 1302.4 248.828C1298.23 252.444 1294.89 256.974 1292.39 262.457C1289.89 267.941 1288.65 274.299 1288.65 281.531V336.883C1288.65 344.115 1283.45 347.731 1273.08 347.731C1262.72 347.731 1257.79 344.115 1257.79 336.883V219.503C1257.79 215.41 1258.9 212.35 1261.13 210.323C1263.35 208.297 1266.97 207.264 1271.97 207.264C1275.86 207.264 1278.96 208.217 1281.27 210.165C1283.57 212.112 1285.48 215.211 1286.99 219.503L1288.38 235.079C1293.18 226.933 1299.22 220.258 1306.45 215.052C1313.68 209.847 1322.78 207.264 1333.7 207.264C1337.59 207.264 1340.57 208.575 1342.6 211.158C1344.62 213.741 1345.66 218.191 1345.66 224.509C1345.66 235.278 1341.4 240.086 1332.86 238.973V238.934Z" fill="#1E1C39"/>
<path d="M1364.56 176.071V163.832C1364.56 156.6 1369.85 152.984 1380.41 152.984C1390.98 152.984 1396.54 156.6 1396.54 163.832V176.071C1396.54 183.303 1391.18 186.919 1380.41 186.919C1369.65 186.919 1364.56 183.303 1364.56 176.071ZM1395.98 218.072V336.843C1395.98 344.075 1390.78 347.691 1380.41 347.691C1370.04 347.691 1365.12 344.075 1365.12 336.843V218.072C1365.12 210.84 1370.2 207.224 1380.41 207.224C1390.62 207.224 1395.98 210.84 1395.98 218.072Z" fill="#1E1C39"/>
<path d="M1550.86 310.697C1546.05 323.492 1538.15 332.87 1527.22 338.79C1516.3 344.751 1503.39 347.691 1488.57 347.691C1478.56 347.691 1469.31 346.301 1460.77 343.519C1452.23 340.737 1444.88 336.486 1438.64 330.724C1432.45 324.962 1427.56 317.691 1424.03 308.869C1420.49 300.048 1418.74 289.637 1418.74 277.557C1418.74 265.477 1420.49 255.027 1424.03 246.126C1427.56 237.225 1432.41 229.913 1438.64 224.152C1444.84 218.39 1452.23 214.138 1460.77 211.357C1469.31 208.575 1478.56 207.184 1488.57 207.184C1503.59 207.184 1516.62 210.085 1527.66 215.926C1538.7 221.767 1546.45 231.185 1550.9 244.179C1552.37 248.271 1551.73 251.49 1548.95 253.914C1546.17 256.338 1542.2 257.53 1537 257.53C1527.74 257.53 1521.62 254.669 1518.64 248.907C1516.06 242.987 1512.01 238.735 1506.57 236.231C1501.09 233.728 1495.13 232.456 1488.61 232.456C1483.41 232.456 1478.56 233.291 1474 234.96C1469.47 236.629 1465.54 239.291 1462.16 242.907C1458.82 246.523 1456.2 251.212 1454.21 256.974C1452.27 262.735 1451.32 269.57 1451.32 277.557C1451.32 285.544 1452.31 292.379 1454.21 298.14C1456.16 303.902 1458.82 308.591 1462.16 312.207C1465.5 315.823 1469.43 318.445 1474 320.154C1478.52 321.823 1483.41 322.658 1488.61 322.658C1495.29 322.658 1501.29 321.307 1506.57 318.644C1511.85 315.942 1515.98 311.73 1518.92 305.968C1520.79 302.988 1523.29 300.803 1526.43 299.412C1529.57 298.021 1533.18 297.346 1537.27 297.346C1542.64 297.346 1546.65 298.538 1549.23 300.962C1551.81 303.385 1552.37 306.604 1550.9 310.697H1550.86Z" fill="#1E1C39"/>
<path d="M1665.46 326.274C1661.01 332.751 1654.73 337.956 1646.67 341.85C1638.6 345.744 1628.36 347.691 1615.92 347.691C1610.16 347.691 1604.48 347.175 1598.84 346.142C1593.2 345.108 1588.12 343.241 1583.67 340.459C1579.22 337.678 1575.6 333.823 1572.82 328.896C1570.04 323.969 1568.65 317.611 1568.65 309.823C1568.65 300.564 1570.88 293.372 1575.33 288.286C1579.78 283.2 1585.38 279.305 1592.17 276.603C1598.92 273.901 1606.31 272.073 1614.29 271.04C1622.28 270.007 1629.71 268.934 1636.7 267.822C1643.65 266.709 1649.53 265.199 1654.37 263.212C1659.18 261.265 1661.8 257.967 1662.16 253.358C1661.6 245.371 1659.02 239.569 1654.37 235.953C1649.73 232.337 1642.69 230.509 1633.24 230.509C1624.54 230.509 1618.03 231.701 1613.78 234.125C1609.53 236.549 1606.63 240.324 1605.16 245.53C1604.24 248.669 1602.18 250.894 1599.04 252.205C1595.9 253.517 1592.65 254.152 1589.31 254.152C1578.39 254.152 1573.74 249.781 1575.41 241.079C1577.43 231.066 1583.07 222.92 1592.25 216.602C1601.42 210.284 1615.09 207.145 1633.28 207.145C1652.94 207.145 1667.76 210.84 1677.77 218.271C1687.78 225.701 1692.78 237.384 1692.78 253.318V307.28C1692.78 312.286 1693.3 315.743 1694.33 317.73C1695.37 319.677 1697.15 320.631 1699.78 320.631H1700.61C1703.03 320.631 1704.86 321.664 1706.17 323.691C1707.48 325.717 1708.12 328.618 1708.12 332.313C1707.92 337.32 1706.57 340.777 1704.1 342.764C1701.6 344.711 1697.39 345.665 1691.43 345.665H1689.77C1676.42 345.665 1668.36 339.188 1665.57 326.194L1665.46 326.274ZM1601.23 308.472C1601.23 313.836 1603.17 318.167 1607.06 321.426C1610.96 324.684 1616.99 326.274 1625.14 326.274C1631.25 326.274 1636.62 325.28 1641.26 323.373C1645.91 321.426 1649.73 318.684 1652.82 315.147C1655.88 311.611 1658.19 307.558 1659.78 302.909C1661.36 298.26 1662.16 293.173 1662.16 287.61V279.822C1658.62 282.047 1654.69 283.716 1650.32 284.829C1645.95 285.941 1641.54 286.816 1637.09 287.491C1632.65 288.127 1628.24 288.842 1623.87 289.557C1619.5 290.312 1615.64 291.385 1612.31 292.776C1608.97 294.167 1606.27 296.074 1604.24 298.458C1602.22 300.882 1601.19 304.22 1601.19 308.472H1601.23Z" fill="#1E1C39"/>
<path d="M1725.79 217.516C1725.79 213.622 1726.91 210.641 1729.13 208.615C1731.35 206.588 1734.97 205.555 1739.97 205.555C1744.22 205.555 1747.48 206.588 1749.71 208.615C1751.93 210.641 1753.68 213.701 1754.99 217.794L1756.1 230.589C1760.55 222.801 1766.67 216.681 1774.45 212.231C1782.24 207.78 1792.25 205.555 1804.48 205.555C1820.05 205.555 1832.29 209.926 1841.18 218.628C1850.08 227.331 1854.45 241.437 1854.25 260.908V334.896C1854.25 342.128 1849.05 345.744 1838.68 345.744C1828.31 345.744 1823.11 342.128 1823.11 334.896V262.298C1823.11 256.537 1822.32 251.729 1820.73 247.834C1819.14 243.94 1816.95 240.801 1814.17 238.377C1811.39 235.953 1808.22 234.245 1804.6 233.211C1800.99 232.178 1797.13 231.702 1793.04 231.702C1786.57 231.702 1781.01 233.013 1776.36 235.596C1771.71 238.178 1767.98 241.794 1765.08 246.444C1762.22 251.093 1760.07 256.616 1758.68 263.014C1757.29 269.411 1756.62 276.405 1756.62 283.994V334.896C1756.62 342.128 1751.41 345.744 1741.05 345.744C1730.68 345.744 1725.75 342.128 1725.75 334.896V217.516H1725.79Z" fill="#1E1C39"/>
<path d="M2121.18 293.451C2118.4 302.71 2114.51 310.737 2109.51 317.532C2104.5 324.287 2098.58 329.929 2091.71 334.38C2084.84 338.83 2077.21 342.168 2068.75 344.393C2060.33 346.618 2051.39 347.731 2041.9 347.731C2029.11 347.731 2017.35 345.824 2006.59 342.009C1995.82 338.194 1986.53 332.313 1978.62 324.326C1970.76 316.34 1964.56 306.247 1960.11 294.008C1955.66 281.769 1953.44 267.226 1953.44 250.338C1953.44 233.45 1955.66 218.906 1960.11 206.668C1964.56 194.429 1970.72 184.336 1978.62 176.349C1986.49 168.362 1995.82 162.481 2006.59 158.666C2017.35 154.852 2029.11 152.944 2041.9 152.944C2061.16 152.944 2077.93 157.474 2092.11 166.574C2106.29 175.674 2116.26 189.74 2122.02 208.853C2123.13 212.549 2122.77 215.449 2120.91 217.476C2119.04 219.503 2115.98 220.536 2111.73 220.536C2108.39 220.536 2105.53 219.94 2103.11 218.708C2100.69 217.516 2099.02 215.608 2098.11 213.026C2093.3 199.674 2085.87 189.78 2075.86 183.382C2065.85 176.985 2054.45 173.766 2041.66 173.766C2032.96 173.766 2024.66 175.197 2016.75 178.097C2008.89 180.958 2002.02 185.449 1996.18 191.568C1990.34 197.687 1985.69 205.555 1982.28 215.211C1978.86 224.867 1977.11 236.549 1977.11 250.258C1977.11 263.967 1978.82 275.411 1982.28 285.186C1985.69 294.922 1990.34 302.869 1996.18 308.949C2002.02 315.068 2008.89 319.558 2016.75 322.419C2024.62 325.28 2032.92 326.75 2041.66 326.75C2053.89 326.75 2065.02 323.73 2075.03 317.691C2085.04 311.651 2092.46 302.154 2097.27 289.16C2098.18 286.577 2099.85 284.67 2102.28 283.438C2104.7 282.246 2107.56 281.61 2110.9 281.61C2115.15 281.61 2118.2 282.643 2120.07 284.67C2121.94 286.696 2122.3 289.597 2121.18 293.293V293.451Z" fill="#1E1C39"/>
<path d="M2174.29 340.459C2174.29 342.883 2173.3 344.671 2171.35 345.903C2169.41 347.095 2166.86 347.731 2163.73 347.731C2160.59 347.731 2158.09 347.135 2156.22 345.903C2154.35 344.711 2153.44 342.883 2153.44 340.459V160.216C2153.44 157.792 2154.35 156.004 2156.22 154.772C2158.09 153.58 2160.59 152.944 2163.73 152.944C2166.86 152.944 2169.45 153.54 2171.35 154.772C2173.3 155.964 2174.29 157.792 2174.29 160.216V340.459Z" fill="#1E1C39"/>
<path d="M2203.49 278.153C2203.49 266.113 2205.16 255.702 2208.49 247C2211.83 238.298 2216.48 231.066 2222.39 225.304C2228.31 219.542 2235.38 215.33 2243.53 212.628C2251.67 209.926 2260.57 208.615 2270.22 208.615C2279.87 208.615 2288.77 209.966 2296.91 212.628C2305.06 215.33 2312.13 219.542 2318.04 225.304C2323.96 231.066 2328.61 238.298 2331.95 247C2335.28 255.702 2336.95 266.113 2336.95 278.153C2336.95 290.193 2335.28 300.604 2331.95 309.306C2328.61 318.008 2323.96 325.24 2318.04 331.002C2312.13 336.764 2305.06 340.976 2296.91 343.678C2288.77 346.38 2279.87 347.691 2270.22 347.691C2260.57 347.691 2251.67 346.34 2243.53 343.678C2235.38 340.976 2228.31 336.764 2222.39 331.002C2216.48 325.24 2211.83 318.008 2208.49 309.306C2205.16 300.604 2203.49 290.193 2203.49 278.153ZM2225.73 278.153C2225.73 287.253 2226.84 295.041 2229.07 301.518C2231.29 307.995 2234.39 313.359 2238.4 317.492C2242.37 321.664 2247.1 324.724 2252.58 326.671C2258.07 328.618 2263.94 329.611 2270.26 329.611C2276.58 329.611 2282.69 328.618 2288.06 326.671C2293.42 324.724 2298.1 321.664 2302.12 317.492C2306.09 313.32 2309.19 307.995 2311.45 301.518C2313.68 295.041 2314.79 287.253 2314.79 278.153C2314.79 269.053 2313.68 261.265 2311.45 254.788C2309.23 248.311 2306.13 242.947 2302.12 238.775C2298.14 234.602 2293.46 231.543 2288.06 229.595C2282.69 227.648 2276.73 226.695 2270.26 226.695C2263.78 226.695 2258.07 227.688 2252.58 229.595C2247.1 231.543 2242.37 234.602 2238.4 238.775C2234.43 242.947 2231.29 248.271 2229.07 254.788C2226.84 261.265 2225.73 269.053 2225.73 278.153Z" fill="#1E1C39"/>
<path d="M2366.15 215.847C2366.15 213.423 2367.14 211.635 2369.09 210.403C2371.03 209.211 2373.58 208.575 2376.71 208.575C2379.85 208.575 2382.35 209.171 2384.22 210.403C2386.09 211.595 2387 213.423 2387 215.847V292.895C2387 300.127 2387.99 306.127 2389.94 310.816C2391.89 315.545 2394.43 319.28 2397.57 322.101C2400.71 324.883 2404.48 326.83 2408.85 327.942C2413.22 329.055 2417.71 329.611 2422.31 329.611C2430.3 329.611 2437.01 327.942 2442.49 324.605C2447.97 321.267 2452.42 316.777 2455.84 311.134C2459.26 305.492 2461.76 298.895 2463.35 291.385C2464.94 283.875 2465.69 275.928 2465.69 267.623V215.887C2465.69 213.463 2466.68 211.674 2468.63 210.443C2470.58 209.211 2473.12 208.615 2476.26 208.615C2479.39 208.615 2481.9 209.211 2483.76 210.443C2485.63 211.635 2486.54 213.463 2486.54 215.887V338.552C2486.54 341.334 2485.87 343.559 2484.48 345.228C2483.09 346.897 2480.9 347.731 2477.93 347.731C2474.95 347.731 2472.6 346.897 2470.85 345.228C2469.11 343.559 2468.11 341.334 2467.95 338.552L2466.56 319.638C2462.12 328.539 2455.8 335.453 2447.66 340.34C2439.51 345.267 2428.75 347.731 2415.4 347.731C2399.83 347.731 2387.68 343.4 2378.98 334.777C2370.28 326.154 2365.99 312.207 2366.19 292.935V215.887L2366.15 215.847Z" fill="#1E1C39"/>
<path d="M2627 338.512L2625.61 324.048C2615.8 339.824 2599.95 347.691 2578.06 347.691C2568.97 347.691 2560.63 346.34 2553.04 343.678C2545.45 341.016 2538.86 336.764 2533.3 331.002C2527.74 325.24 2523.45 318.008 2520.35 309.306C2517.29 300.604 2515.78 290.193 2515.78 278.153C2515.78 266.113 2517.29 255.702 2520.35 247C2523.41 238.298 2527.74 231.066 2533.3 225.304C2538.86 219.542 2545.45 215.33 2553.04 212.628C2560.63 209.926 2568.97 208.615 2578.06 208.615C2588.63 208.615 2597.89 210.482 2605.87 214.178C2613.85 217.873 2620.33 223.715 2625.33 231.702V160.216C2625.33 157.792 2626.25 156.004 2628.11 154.772C2629.98 153.58 2632.48 152.944 2635.62 152.944C2638.76 152.944 2641.34 153.54 2643.25 154.772C2645.19 155.964 2646.19 157.792 2646.19 160.216V338.512C2646.19 341.294 2645.47 343.519 2644.08 345.188C2642.69 346.857 2640.43 347.691 2637.25 347.691C2634.07 347.691 2631.69 346.857 2630.02 345.188C2628.35 343.519 2627.32 341.294 2626.96 338.512H2627ZM2538.02 278.153C2538.02 287.253 2539.14 295.041 2541.36 301.518C2543.59 307.995 2546.68 313.359 2550.7 317.492C2554.67 321.664 2559.39 324.724 2564.88 326.671C2570.36 328.618 2576.24 329.611 2582.55 329.611C2593.32 329.611 2602.49 326.909 2610.08 321.545C2617.67 316.181 2622.79 307.359 2625.37 295.12V261.464C2622.79 249.225 2617.67 240.364 2610.08 234.92C2602.49 229.437 2593.28 226.695 2582.55 226.695C2576.24 226.695 2570.36 227.688 2564.88 229.595C2559.39 231.543 2554.67 234.602 2550.7 238.775C2546.72 242.947 2543.59 248.271 2541.36 254.788C2539.14 261.265 2538.02 269.053 2538.02 278.153Z" fill="#1E1C39"/>
<path d="M497.238 444.449C496.721 446.316 496.165 448.184 495.529 450.012C485.242 479.178 457.476 500 424.864 500H74.9551C42.3038 500 14.5383 479.139 4.29007 450.012C3.65452 448.184 3.05869 446.356 2.58203 444.449H497.238Z" fill="#1E1C39"/>
<path d="M499.78 333.307H0V388.898H499.78V333.307Z" fill="#1E1C39"/>
<path d="M2.58203 444.449H497.238C496.721 446.316 496.165 448.184 495.529 450.012C485.242 479.178 457.476 500 424.864 500H74.9551C42.3038 500 14.5383 479.139 4.29007 450.012C3.65452 448.184 3.05869 446.356 2.58203 444.449Z" fill="#1E1C39"/>
<path d="M499.78 166.653V111.102H249.89V55.5511H497.198C496.681 53.6835 496.125 51.8159 495.49 49.9881C485.202 20.8615 457.436 0 424.825 0H74.955C40.2779 0 11.1221 23.5635 2.58192 55.5511C0.873879 61.75 0 68.2667 0 74.9821V277.756H499.78V222.205H249.89V166.653H499.78ZM211.399 149.328C210.843 156.64 208.539 163.475 204.964 169.435C198.649 179.925 188.321 187.714 176.126 190.654C172.671 191.449 169.056 191.926 165.362 191.926H69.8706C66.7723 191.926 63.7932 191.449 60.973 190.654C50.6056 187.594 42.7407 179.409 39.7218 169.435C37.7754 163.157 37.8152 156.123 40.3573 149.328C40.556 148.812 40.7546 148.335 40.9929 147.818C45.3623 137.765 54.538 130.732 65.3424 129.182C65.4218 128.825 65.5012 128.467 65.541 128.149C67.1298 120.559 70.109 113.765 74.1209 108.043C81.9063 96.9959 93.664 89.605 106.415 86.8235C113.922 85.1943 121.708 85.1546 129.294 86.8235C138.43 88.8898 147.288 93.4197 154.836 100.771C168.42 97.6317 181.727 100.771 191.975 108.043C199.006 113.049 204.647 119.963 208.023 128.149C210.287 133.513 211.519 139.474 211.519 145.752C211.519 146.984 211.479 148.176 211.399 149.368V149.328Z" fill="#1E1C39"/>
<path d="M170.565 121.831C171.519 122.467 172.472 123.182 173.306 123.977C172.432 123.182 171.519 122.467 170.565 121.831ZM157.775 117.341C157.775 117.341 158.013 117.341 158.132 117.341C158.013 117.341 157.894 117.341 157.775 117.341ZM154.637 117.261C155.709 117.261 156.742 117.261 157.775 117.341C157.06 117.301 156.345 117.222 155.63 117.222C155.312 117.222 154.955 117.222 154.637 117.261Z" fill="white"/>
<path d="M195.113 145.752C195.113 146.785 195.034 147.739 194.955 148.812C194.279 155.17 191.697 161.011 187.407 165.7C183.515 170.031 178.47 173.051 172.949 174.481C170.486 175.157 167.983 175.475 165.402 175.475H69.95C63.8726 175.475 58.9868 172.415 56.5241 167.09C54.2599 162.243 54.4983 156.56 57.0802 152.229C57.9143 150.878 58.9471 149.686 60.1785 148.693C61.6085 147.54 63.3165 146.666 65.3026 145.991C66.812 145.514 68.4009 145.275 69.9898 145.275C71.9361 145.275 73.8825 145.633 75.7891 146.308C78.8874 147.421 81.946 149.408 85.0443 152.229C86.3551 153.461 87.944 154.335 89.6521 154.733C90.6054 154.971 91.519 155.13 92.4723 155.13C93.4256 155.13 94.3789 154.971 95.2925 154.733C97.3184 154.256 99.1853 153.143 100.576 151.593C100.695 151.434 100.854 151.276 100.973 151.117C104.627 146.626 104.27 139.99 100.019 136.017C94.9351 131.328 89.2946 127.791 83.376 125.685C85.3224 120.48 88.3015 115.95 92.3134 112.135C99.1058 105.738 108.44 102.082 117.934 102.082C127.427 102.082 136.206 105.619 142.959 112.135C143.594 112.771 144.27 113.447 144.985 114.241C147.09 116.586 150.109 117.937 153.207 117.937C154.319 117.937 155.392 117.778 156.464 117.42C159.404 116.467 162.422 116.03 165.441 116.03C171.439 116.03 177.239 117.897 182.085 121.195C185.779 123.699 188.877 127.036 191.181 131.05C193.763 135.461 195.153 140.586 195.153 145.792L195.113 145.752Z" fill="#1E1C39"/>
</g>
<defs>
<clipPath id="clip0_14_2">
<rect width="2646.19" height="500" fill="white"/>
</clipPath>
</defs>
</svg>
