<svg
   viewBox="0 0 599.99999 599.99999"
   class="h-10 w-auto"
   width="600"
   height="600"
   xmlns="http://www.w3.org/2000/svg">
  <path
     id="path4"
     style="display:inline;fill-rule:evenodd;stroke-width:1.05121;stroke-linecap:round;stroke-linejoin:round;stroke-dashoffset:105.827;paint-order:stroke fill markers"
     d="m 415.64694,135.13058 c -4.13025,0.88716 -4.70882,4.98315 -4.13015,15.88795 0.6156,11.6004 5.39853,28.11012 26.95361,43.68032 9.37579,7.0073 20.28575,5.14552 16.84396,11.48335 -9.41711,14.47925 -13.84997,17.07213 -33.13383,23.02743 -8.95273,2.76481 -24.05642,1.5444 -41.60905,-3.34868 -17.55262,-4.89307 -37.46971,-13.03264 -56.99736,-21.82698 -19.5276,-8.79435 -38.68102,-18.22532 -55.21523,-25.73002 -16.53416,-7.50468 -29.5365,-13.34358 -41.28463,-14.29605 -6.11622,-0.49585 -12.34956,-0.7224 -18.83967,-0.78429 -19.47032,-0.18568 -41.24869,1.11691 -69.09654,1.11691 -18.87067,0 -32.91463,6.31578 -39.718088,17.82335 -6.803458,11.50756 -6.842619,24.52789 -7.212699,38.59091 -0.361534,13.73829 -1.0242,23.9633 -0.344928,33.21168 0.679273,9.24836 3.193285,18.04645 9.000985,25.44257 2.62143,3.3384 5.31017,5.29701 9.30896,8.22696 3.99879,2.92992 9.06388,6.29061 15.105,9.97006 12.08222,7.35889 28.04023,15.96716 46.43187,24.23533 36.78327,16.53634 83.16829,31.84428 127.69945,31.84428 103.17013,0 202.63311,-79.82628 202.63311,-79.82628 4.56176,-3.59112 5.34862,-10.20035 1.75749,-14.76212 -3.59112,-4.56176 -10.20035,-5.34862 -14.76211,-1.75748 0,0 -97.59863,75.32167 -189.62849,75.32167 -39.61426,0 -83.96219,-14.20961 -119.0783,-29.99645 -17.55805,-7.89341 -32.84319,-16.14989 -44.11593,-23.01576 -5.63637,-3.43292 -10.2781,-6.52622 -13.61645,-8.97223 -3.33835,-2.44603 -5.61759,-4.78572 -5.19857,-4.25207 -1.28098,-1.63137 -2.15375,-3.19861 -2.83539,-4.95013 h 53.84578 c 19.10679,0 32.83258,7.74675 52.3244,16.72082 19.49182,8.97405 44.14408,18.35401 81.06433,17.67347 52.84817,-0.97417 84.59458,-11.4249 114.8283,-28.8467 17.48029,-10.0728 30.46345,-18.5899 41.75472,-31.09857 7.31825,-8.56024 11.74392,-14.512 17.40428,-24.25773 3.46211,-6.08754 9.97887,-6.7744 18.06058,-6.71712 15.3995,0.10915 35.13961,-19.20288 41.71768,-30.33405 6.57809,-11.13118 9.9968,-22.21876 0.40932,-22.26661 -9.58747,-0.0478 -9.18469,9.66696 -23.2267,10.90194 -13.99629,0.45738 -31.84481,2.36207 -39.52905,17.27315 -1.37219,-5.48874 -8.10992,-21.40458 -30.25103,-27.06867 -22.14112,-5.66408 -13.52589,-21.28697 -27.31963,-18.32416 z m -207.61971,49.14804 c 18.55937,-1.31877 34.98433,5.75476 51.64276,13.17091 16.05462,7.28702 35.30914,16.76491 55.27066,25.75465 19.96152,8.98975 40.617,17.50995 59.98469,22.909 9.15773,2.55286 18.01634,4.41879 26.52663,5.24578 -26.36638,14.49294 -52.49161,22.61354 -100.04155,23.49004 -33.3264,0.6143 -53.31693,-7.20404 -71.88266,-15.75174 -18.56573,-8.54769 -36.31491,-18.64665 -61.11802,-18.64665 h -55.70183 c 0.10677,-5.38294 0.31713,-11.61126 0.51535,-19.14354 0.36175,-13.74657 1.55813,-23.81475 4.29518,-28.44427 2.73703,-4.62951 6.54086,-7.49808 21.61961,-7.49808 28.47575,0 50.46232,-1.2225 68.88918,-1.0861 z m -25.71155,20.2132 c -5.96155,-5e-4 -10.7948,4.83182 -10.79543,10.79339 -5e-4,5.96235 4.83308,10.79594 10.79543,10.79543 5.96157,-6.3e-4 10.7939,-4.83388 10.7934,-10.79543 -6.3e-4,-5.96077 -4.83263,-10.79276 -10.7934,-10.79339 z m -72.17009,101.7436 c -0.67579,-0.018 -1.35604,0.002 -2.03672,0.0617 -4.7441,0.41704 -9.245546,3.09716 -11.865124,6.64809 -2.619577,3.55093 -3.658704,7.68171 -3.658704,11.73783 -4.81e-4,107.79556 92.835918,188.75986 207.414868,188.76 114.57894,-1.4e-4 207.41536,-80.96444 207.41487,-188.76 0,-4.05612 -1.03912,-8.1869 -3.65869,-11.73783 -2.61959,-3.55093 -7.12103,-6.23105 -11.86513,-6.64809 -1.36136,-0.11973 -2.71894,-0.0766 -4.0488,0.1006 -3.55743,0.4736 -6.8953,1.87575 -10.0871,3.92151 -32.63377,20.91645 -95.50579,73.55182 -177.75515,73.55182 -82.24935,0 -145.12138,-52.63537 -177.75513,-73.55186 -3.1918,-2.04576 -6.52968,-3.4479 -10.0871,-3.92151 -0.66493,-0.0885 -1.33629,-0.14422 -2.01209,-0.1622 z m 1.56655,19.99969 c 0.1379,0.0807 0.10313,0.0199 0.2546,0.11703 29.41248,18.85183 97.54158,76.56178 188.03317,76.56178 90.49159,0 158.62071,-57.70995 188.03319,-76.56178 0.15147,-0.097 0.1167,-0.0362 0.25459,-0.11703 -0.0681,7.35313 -0.20898,10.42861 -1.20314,17.47843 -7.35807,9.91852 -87.42371,96.94129 -187.08464,96.94129 -99.66094,0 -179.72656,-87.02277 -187.08463,-96.94129 -0.99416,-7.04982 -1.13505,-10.1253 -1.20314,-17.47843 z m 11.49146,58.69326 c 34.07035,31.31915 100.60099,77.06275 176.79631,77.06275 76.19531,0 142.72598,-45.7436 176.79633,-77.06275 -26.19438,65.3053 -94.47506,109.47151 -176.79633,109.47165 -82.32128,-1.1e-4 -150.60194,-44.16635 -176.79631,-109.47165 z"
     />
</svg>
